<svg id="visual" viewBox="0 0 960 540" width="960" height="540" xmlns="http://www.w3.org/2000/svg" xmlns:xlink="http://www.w3.org/1999/xlink" version="1.1"><rect x="0" y="0" width="960" height="540" fill="#001220"></rect><defs><linearGradient id="grad1_0" x1="43.8%" y1="0%" x2="100%" y2="100%"><stop offset="14.444444444444446%" stop-color="#036d3f" stop-opacity="1"></stop><stop offset="85.55555555555554%" stop-color="#036d3f" stop-opacity="1"></stop></linearGradient></defs><defs><linearGradient id="grad1_1" x1="43.8%" y1="0%" x2="100%" y2="100%"><stop offset="14.444444444444446%" stop-color="#036d3f" stop-opacity="1"></stop><stop offset="85.55555555555554%" stop-color="#005b49" stop-opacity="1"></stop></linearGradient></defs><defs><linearGradient id="grad1_2" x1="43.8%" y1="0%" x2="100%" y2="100%"><stop offset="14.444444444444446%" stop-color="#00494b" stop-opacity="1"></stop><stop offset="85.55555555555554%" stop-color="#005b49" stop-opacity="1"></stop></linearGradient></defs><defs><linearGradient id="grad1_3" x1="43.8%" y1="0%" x2="100%" y2="100%"><stop offset="14.444444444444446%" stop-color="#00494b" stop-opacity="1"></stop><stop offset="85.55555555555554%" stop-color="#003644" stop-opacity="1"></stop></linearGradient></defs><defs><linearGradient id="grad1_4" x1="43.8%" y1="0%" x2="100%" y2="100%"><stop offset="14.444444444444446%" stop-color="#002434" stop-opacity="1"></stop><stop offset="85.55555555555554%" stop-color="#003644" stop-opacity="1"></stop></linearGradient></defs><defs><linearGradient id="grad1_5" x1="43.8%" y1="0%" x2="100%" y2="100%"><stop offset="14.444444444444446%" stop-color="#002434" stop-opacity="1"></stop><stop offset="85.55555555555554%" stop-color="#001220" stop-opacity="1"></stop></linearGradient></defs><defs><linearGradient id="grad2_0" x1="0%" y1="0%" x2="56.3%" y2="100%"><stop offset="14.444444444444446%" stop-color="#036d3f" stop-opacity="1"></stop><stop offset="85.55555555555554%" stop-color="#036d3f" stop-opacity="1"></stop></linearGradient></defs><defs><linearGradient id="grad2_1" x1="0%" y1="0%" x2="56.3%" y2="100%"><stop offset="14.444444444444446%" stop-color="#005b49" stop-opacity="1"></stop><stop offset="85.55555555555554%" stop-color="#036d3f" stop-opacity="1"></stop></linearGradient></defs><defs><linearGradient id="grad2_2" x1="0%" y1="0%" x2="56.3%" y2="100%"><stop offset="14.444444444444446%" stop-color="#005b49" stop-opacity="1"></stop><stop offset="85.55555555555554%" stop-color="#00494b" stop-opacity="1"></stop></linearGradient></defs><defs><linearGradient id="grad2_3" x1="0%" y1="0%" x2="56.3%" y2="100%"><stop offset="14.444444444444446%" stop-color="#003644" stop-opacity="1"></stop><stop offset="85.55555555555554%" stop-color="#00494b" stop-opacity="1"></stop></linearGradient></defs><defs><linearGradient id="grad2_4" x1="0%" y1="0%" x2="56.3%" y2="100%"><stop offset="14.444444444444446%" stop-color="#003644" stop-opacity="1"></stop><stop offset="85.55555555555554%" stop-color="#002434" stop-opacity="1"></stop></linearGradient></defs><defs><linearGradient id="grad2_5" x1="0%" y1="0%" x2="56.3%" y2="100%"><stop offset="14.444444444444446%" stop-color="#001220" stop-opacity="1"></stop><stop offset="85.55555555555554%" stop-color="#002434" stop-opacity="1"></stop></linearGradient></defs><g transform="translate(960, 0)"><path d="M0 540C-91.2 521.3 -182.5 502.5 -265.5 459.9C-348.5 417.2 -423.3 350.6 -467.7 270C-512 189.4 -526 94.7 -540 0L0 0Z" fill="#001b2b"></path><path d="M0 450C-76 434.4 -152.1 418.8 -221.2 383.2C-290.4 347.7 -352.7 292.2 -389.7 225C-426.7 157.8 -438.3 78.9 -450 0L0 0Z" fill="#002d3d"></path><path d="M0 360C-60.8 347.5 -121.7 335 -177 306.6C-232.3 278.1 -282.2 233.8 -311.8 180C-341.4 126.2 -350.7 63.1 -360 0L0 0Z" fill="#003f48"></path><path d="M0 270C-45.6 260.6 -91.2 251.3 -132.7 229.9C-174.3 208.6 -211.6 175.3 -233.8 135C-256 94.7 -263 47.3 -270 0L0 0Z" fill="#00524b"></path><path d="M0 180C-30.4 173.8 -60.8 167.5 -88.5 153.3C-116.2 139.1 -141.1 116.9 -155.9 90C-170.7 63.1 -175.3 31.6 -180 0L0 0Z" fill="#006445"></path><path d="M0 90C-15.2 86.9 -30.4 83.8 -44.2 76.6C-58.1 69.5 -70.5 58.4 -77.9 45C-85.3 31.6 -87.7 15.8 -90 0L0 0Z" fill="#036d3f"></path></g><g transform="translate(0, 540)"><path d="M0 -540C96.4 -527 192.8 -514 270 -467.7C347.2 -421.3 405.1 -341.5 446.9 -258C488.7 -174.5 514.3 -87.2 540 0L0 0Z" fill="#001b2b"></path><path d="M0 -450C80.3 -439.2 160.7 -428.4 225 -389.7C289.3 -351.1 337.6 -284.6 372.4 -215C407.2 -145.4 428.6 -72.7 450 0L0 0Z" fill="#002d3d"></path><path d="M0 -360C64.3 -351.3 128.6 -342.7 180 -311.8C231.4 -280.9 270.1 -227.7 297.9 -172C325.8 -116.3 342.9 -58.2 360 0L0 0Z" fill="#003f48"></path><path d="M0 -270C48.2 -263.5 96.4 -257 135 -233.8C173.6 -210.6 202.5 -170.8 223.4 -129C244.3 -87.2 257.2 -43.6 270 0L0 0Z" fill="#00524b"></path><path d="M0 -180C32.1 -175.7 64.3 -171.3 90 -155.9C115.7 -140.4 135 -113.8 149 -86C162.9 -58.2 171.4 -29.1 180 0L0 0Z" fill="#006445"></path><path d="M0 -90C16.1 -87.8 32.1 -85.7 45 -77.9C57.9 -70.2 67.5 -56.9 74.5 -43C81.4 -29.1 85.7 -14.5 90 0L0 0Z" fill="#036d3f"></path></g></svg>