<?xml version="1.0" ?><svg id="Layer_1" style="enable-background:new 0 0 512 512;" version="1.1" viewBox="0 0 512 512" xml:space="preserve" xmlns="http://www.w3.org/2000/svg" xmlns:xlink="http://www.w3.org/1999/xlink"><style type="text/css">
	.st0{opacity:0.2;}
	.st1{fill:#FFFFFF;}
	.st2{fill:#4D574E;}
	.st3{fill:#1E1E19;}
	.st4{fill:#303030;}
	.st5{fill:#7A7A7A;}
	.st6{fill:#C2C6B4;}
	.st7{fill:#4C4C4B;}
	.st8{fill:#434266;}
	.st9{fill:#5898CC;}
	.st10{fill:#4987B2;}
	.st11{fill:#AEA498;}
	.st12{fill:#483E3F;}
	.st13{fill:#171A1D;}
	.st14{fill:#333538;}
	.st15{fill:#232528;}
	.st16{fill:#606472;}
	.st17{fill:#AD774B;}
	.st18{fill:#EDB17A;}
	.st19{fill:#FFFDFD;}
</style><g id="XMLID_7923_"><path class="st0" d="M383.2,19.3H142.6c-15.1,0-27.4,12.3-27.5,27.3l-0.4,91.3h-0.1v341   c0,14.9,12.2,27.1,27.1,27.1H383c14.9,0,27.1-12.1,27.1-27l0.5-298h0V46.8C410.7,31.6,398.3,19.3,383.2,19.3z" id="XMLID_8821_"/><path class="st1" d="M369.9,6H129.4c-15.1,0-27.4,12.3-27.5,27.3l-0.4,91.3h-0.1v341c0,14.9,12.2,27.1,27.1,27.1   h241.3c14.9,0,27.1-12.1,27.1-27l0.5-298h0V33.5C397.4,18.3,385,6,369.9,6z" id="XMLID_7915_"/><g id="XMLID_7111_"><g id="XMLID_7656_"><path class="st2" d="M383.1,465.7l0.5-323.9l-268.5,0.1v323.8c0,7.4,6,13.3,13.3,13.3h241.3     C377.1,478.9,383,473,383.1,465.7z" id="XMLID_7670_"/><path class="st3" d="M369.9,19.8H129.4c-7.5,0-13.7,6.1-13.7,13.6l-0.5,109.4h268.5V33.5     C383.6,25.9,377.5,19.8,369.9,19.8z" id="XMLID_7669_"/><path class="st4" d="M119.6,138.4l0.5-104.9c0-5.1,4.2-9.2,9.3-9.2h240.5c5.1,0,9.3,4.2,9.3,9.3v104.9H119.6z" id="XMLID_7668_"/><path class="st1" d="M364.8,69.6H135.7c-3.8,0-6.9,3.1-6.9,6.9v37.4c0,3.8,3.1,6.9,6.9,6.9h229.1     c3.8,0,6.9-3.1,6.9-6.9V76.4C371.6,72.6,368.6,69.6,364.8,69.6z M360.9,113.6H139.5V76.7h221.4V113.6z" id="XMLID_7665_"/><path class="st5" d="M139.5,76.7v36.9h221.4V76.7H139.5z M358.3,110.9H142.2V79.4h216.1V110.9z" id="XMLID_7662_"/><rect class="st6" height="31.5" id="XMLID_7661_" width="216.1" x="142.2" y="79.4"/><polygon class="st7" id="XMLID_7660_" points="142.2,110.9 139.5,113.6 139.5,76.7 142.2,79.4    "/><polygon class="st7" id="XMLID_7659_" points="358.3,110.9 360.9,113.6 360.9,76.7 358.3,79.4    "/><rect class="st3" height="15.5" id="XMLID_7658_" width="264" x="119.6" y="138.4"/><rect class="st4" height="15.5" id="XMLID_7657_" width="4.5" x="115.1" y="138.4"/></g><g id="XMLID_7609_"><g id="XMLID_7647_"><g id="XMLID_7653_"><rect class="st8" height="17.4" id="XMLID_7655_" width="25.6" x="126.3" y="165.3"/><rect class="st9" height="17.4" id="XMLID_7654_" width="25.6" x="125.6" y="164.6"/></g><g id="XMLID_7648_"><path class="st1" d="M136,175.2L136,175.2l1.3-4.9h1.7v6.6h-1.3v-4.2l0,0l-1.2,4.2h-0.9l-1.2-4.2l0,0v4.2H133       v-6.6h1.7L136,175.2z" id="XMLID_7651_"/><path class="st1" d="M144.5,174.8L144.5,174.8c0,0.7-0.2,1.3-0.5,1.7c-0.4,0.4-0.9,0.6-1.6,0.6       c-0.7,0-1.3-0.2-1.7-0.7c-0.4-0.5-0.6-1.1-0.6-1.9v-1.7c0-0.8,0.2-1.4,0.6-1.9c0.4-0.5,1-0.7,1.7-0.7c0.7,0,1.3,0.2,1.7,0.6       c0.4,0.4,0.6,0.9,0.6,1.6l0,0h-1.3c0-0.4-0.1-0.7-0.2-0.9c-0.2-0.2-0.4-0.3-0.8-0.3c-0.3,0-0.6,0.1-0.7,0.4       c-0.2,0.3-0.2,0.6-0.2,1.2v1.7c0,0.5,0.1,0.9,0.3,1.2c0.2,0.3,0.4,0.4,0.8,0.4c0.3,0,0.6-0.1,0.7-0.3c0.1-0.2,0.2-0.5,0.2-0.9       H144.5z" id="XMLID_7649_"/></g></g><g id="XMLID_7637_"><g id="XMLID_7644_"><rect class="st10" height="17.4" id="XMLID_7646_" width="25.6" x="184.2" y="165.3"/><rect class="st9" height="17.4" id="XMLID_7645_" width="25.6" x="183.6" y="164.6"/></g><g id="XMLID_7638_"><path class="st1" d="M193.9,175.2L193.9,175.2l1.3-4.9h1.7v6.6h-1.3v-4.2l0,0l-1.2,4.2h-0.9l-1.2-4.2l0,0v4.2       h-1.3v-6.6h1.7L193.9,175.2z" id="XMLID_7642_"/><path class="st1" d="M199.2,174.3v2.7h-1.3v-6.6h2c0.7,0,1.2,0.2,1.6,0.5c0.4,0.3,0.6,0.8,0.6,1.4       c0,0.3-0.1,0.6-0.2,0.9c-0.2,0.3-0.4,0.5-0.7,0.6c0.4,0.1,0.6,0.3,0.8,0.6c0.2,0.3,0.2,0.6,0.2,1v0.5c0,0.2,0,0.4,0.1,0.6       s0.1,0.4,0.2,0.4v0.1h-1.4c-0.1-0.1-0.2-0.3-0.2-0.5c0-0.2,0-0.4,0-0.7v-0.5c0-0.3-0.1-0.6-0.2-0.8c-0.1-0.2-0.3-0.3-0.6-0.3       H199.2z M199.2,173.3h0.7c0.3,0,0.5-0.1,0.6-0.2c0.1-0.2,0.2-0.4,0.2-0.7c0-0.3-0.1-0.6-0.2-0.7c-0.1-0.2-0.4-0.3-0.6-0.3h-0.7       V173.3z" id="XMLID_7639_"/></g></g><g id="XMLID_7628_"><g id="XMLID_7634_"><rect class="st10" height="17.4" id="XMLID_7636_" width="25.6" x="352.4" y="165.3"/><rect class="st9" height="17.4" id="XMLID_7635_" width="25.6" x="351.8" y="164.6"/></g><g id="XMLID_7629_"><path class="st1" d="M363.1,175.2L363.1,175.2l1.3-4.9h1.7v6.6h-1.3v-4.2l0,0l-1.2,4.2h-0.9l-1.2-4.2l0,0v4.2       h-1.3v-6.6h1.7L363.1,175.2z" id="XMLID_7632_"/><path class="st1" d="M369.6,174.2h-2.4v-1h2.4V174.2z" id="XMLID_7630_"/></g></g><g id="XMLID_7619_"><g id="XMLID_7625_"><rect class="st10" height="17.4" id="XMLID_7627_" width="25.6" x="240.3" y="165.3"/><rect class="st9" height="17.4" id="XMLID_7626_" width="25.6" x="239.6" y="164.6"/></g><g id="XMLID_7620_"><path class="st1" d="M250.1,175.2L250.1,175.2l1.3-4.9h1.7v6.6h-1.3v-4.2l0,0l-1.2,4.2h-0.9l-1.2-4.2l0,0v4.2       h-1.3v-6.6h1.7L250.1,175.2z" id="XMLID_7623_"/><path class="st1" d="M257.1,175.2c0-0.3-0.1-0.5-0.2-0.6c-0.1-0.1-0.4-0.3-0.7-0.4c-0.7-0.2-1.2-0.5-1.5-0.8       c-0.3-0.3-0.5-0.7-0.5-1.3c0-0.5,0.2-1,0.6-1.3c0.4-0.3,0.9-0.5,1.5-0.5c0.7,0,1.2,0.2,1.5,0.5c0.4,0.4,0.6,0.9,0.5,1.5l0,0       H257c0-0.3-0.1-0.6-0.2-0.8c-0.1-0.2-0.3-0.3-0.6-0.3c-0.2,0-0.4,0.1-0.5,0.2c-0.1,0.2-0.2,0.4-0.2,0.6c0,0.2,0.1,0.4,0.2,0.6       c0.1,0.1,0.4,0.3,0.8,0.5c0.7,0.2,1.1,0.5,1.5,0.8c0.3,0.3,0.5,0.8,0.5,1.3c0,0.6-0.2,1-0.6,1.4c-0.4,0.3-0.9,0.5-1.5,0.5       c-0.6,0-1.2-0.2-1.6-0.5c-0.4-0.3-0.7-0.9-0.6-1.6l0,0h1.3c0,0.4,0.1,0.7,0.2,0.9c0.2,0.2,0.4,0.3,0.7,0.3       c0.3,0,0.5-0.1,0.6-0.2S257.1,175.5,257.1,175.2z" id="XMLID_7621_"/></g></g><g id="XMLID_7610_"><g id="XMLID_7616_"><rect class="st10" height="17.4" id="XMLID_7618_" width="25.6" x="296.3" y="165.3"/><rect class="st9" height="17.4" id="XMLID_7617_" width="25.6" x="295.6" y="164.6"/></g><g id="XMLID_7611_"><path class="st1" d="M306.3,175.2L306.3,175.2l1.3-4.9h1.7v6.6H308v-4.2l0,0l-1.2,4.2h-0.9l-1.2-4.2l0,0v4.2       h-1.3v-6.6h1.7L306.3,175.2z" id="XMLID_7614_"/><path class="st1" d="M312.7,173.3h1.5v1.1h-1.5v1.9h-1.2v-1.9H310v-1.1h1.5v-1.8h1.2V173.3z" id="XMLID_7612_"/></g></g></g><g id="XMLID_7599_"><path class="st3" d="M366.8,34.4H255.5c-1.1,0-2,0.9-2,2v17.2c0,1.1,0.9,2,2,2h111.2c1.1,0,2-0.9,2-2V36.5     C368.8,35.4,367.9,34.4,366.8,34.4z M367.1,53.6c0,0.2-0.1,0.3-0.3,0.3H255.5c-0.2,0-0.3-0.1-0.3-0.3V36.5c0-0.2,0.1-0.3,0.3-0.3     h111.2c0.2,0,0.3,0.1,0.3,0.3V53.6z" id="XMLID_7606_"/><path class="st11" d="M367.1,53.6c0,0.2-0.1,0.3-0.3,0.3H255.5c-0.2,0-0.3-0.1-0.3-0.3V36.5     c0-0.2,0.1-0.3,0.3-0.3h111.2c0.2,0,0.3,0.1,0.3,0.3V53.6z" id="XMLID_7605_"/><rect class="st12" height="17.7" id="XMLID_7604_" width="0.8" x="273.9" y="36.2"/><rect class="st12" height="17.7" id="XMLID_7603_" width="0.8" x="292.5" y="36.2"/><rect class="st12" height="17.7" id="XMLID_7602_" width="0.8" x="311.2" y="36.2"/><rect class="st12" height="17.7" id="XMLID_7601_" width="0.8" x="348.4" y="36.2"/><rect class="st12" height="17.7" id="XMLID_7600_" width="0.8" x="329.8" y="36.2"/></g><g id="XMLID_7171_"><g id="XMLID_7596_"><rect class="st13" height="21.9" id="XMLID_7598_" width="32.2" x="121.5" y="212.4"/><path class="st14" d="M151.7,233.4h-29.7c-0.7,0-1.2-0.6-1.2-1.2v-19.4c0-0.7,0.6-1.2,1.2-1.2h29.7      c0.7,0,1.2,0.6,1.2,1.2v19.4C152.9,232.9,152.4,233.4,151.7,233.4z" id="XMLID_7597_"/></g><g id="XMLID_7593_"><rect class="st13" height="21.9" id="XMLID_7595_" width="32.2" x="121.5" y="246.1"/><path class="st14" d="M151.7,267.1h-29.7c-0.7,0-1.2-0.6-1.2-1.2v-19.4c0-0.7,0.6-1.2,1.2-1.2h29.7      c0.7,0,1.2,0.6,1.2,1.2v19.4C152.9,266.6,152.4,267.1,151.7,267.1z" id="XMLID_7594_"/></g><g id="XMLID_7590_"><rect class="st13" height="21.9" id="XMLID_7592_" width="32.2" x="121.5" y="279.7"/><path class="st14" d="M151.7,300.8h-29.7c-0.7,0-1.2-0.6-1.2-1.2v-19.4c0-0.7,0.6-1.2,1.2-1.2h29.7      c0.7,0,1.2,0.6,1.2,1.2v19.4C152.9,300.2,152.4,300.8,151.7,300.8z" id="XMLID_7591_"/></g><g id="XMLID_7587_"><rect class="st13" height="21.9" id="XMLID_7589_" width="32.2" x="121.5" y="313.4"/><path class="st14" d="M151.7,334.4h-29.7c-0.7,0-1.2-0.6-1.2-1.2v-19.4c0-0.7,0.6-1.2,1.2-1.2h29.7      c0.7,0,1.2,0.6,1.2,1.2v19.4C152.9,333.9,152.4,334.4,151.7,334.4z" id="XMLID_7588_"/></g><g id="XMLID_7577_"><path class="st1" d="M130.4,225.9c0-0.2-0.1-0.4-0.2-0.5c-0.2-0.1-0.4-0.3-0.9-0.5c-0.7-0.2-1.2-0.5-1.5-0.8      c-0.3-0.3-0.5-0.7-0.5-1.2c0-0.5,0.2-1,0.7-1.4c0.4-0.4,1-0.6,1.7-0.6c0.7,0,1.3,0.2,1.8,0.6c0.4,0.4,0.7,0.9,0.6,1.5l0,0h-1.7      c0-0.3-0.1-0.5-0.2-0.7c-0.1-0.2-0.3-0.3-0.6-0.3c-0.2,0-0.4,0.1-0.5,0.2c-0.1,0.1-0.2,0.3-0.2,0.5c0,0.2,0.1,0.4,0.2,0.5      c0.1,0.1,0.4,0.3,0.9,0.5c0.7,0.2,1.2,0.5,1.6,0.8s0.5,0.7,0.5,1.2c0,0.6-0.2,1-0.7,1.4c-0.5,0.4-1.1,0.5-1.8,0.5      c-0.8,0-1.4-0.2-1.8-0.7c-0.5-0.4-0.7-0.9-0.6-1.5l0,0h1.6c0,0.4,0.1,0.6,0.3,0.8c0.2,0.2,0.4,0.2,0.7,0.2      c0.2,0,0.4-0.1,0.6-0.2C130.3,226.2,130.4,226.1,130.4,225.9z" id="XMLID_7585_"/><path class="st1" d="M134.8,219.4H133v-1.3h1.7V219.4z M134.8,227.6H133V221h1.7V227.6z" id="XMLID_7582_"/><path class="st1" d="M137.6,221l0.1,0.9c0.2-0.3,0.4-0.6,0.7-0.8c0.3-0.2,0.6-0.3,0.9-0.3c0.6,0,1,0.2,1.3,0.7      s0.5,1.1,0.5,2v4h-1.7v-4c0-0.5-0.1-0.8-0.2-1.1c-0.1-0.2-0.3-0.3-0.6-0.3c-0.2,0-0.4,0-0.5,0.1c-0.2,0.1-0.3,0.2-0.4,0.4v4.8      H136V221H137.6z" id="XMLID_7580_"/><path class="st1" d="M143.9,221.8c0.2-0.3,0.4-0.5,0.6-0.7s0.5-0.2,0.8-0.2c0.6,0,1.1,0.2,1.4,0.7      c0.3,0.5,0.5,1.2,0.5,2.1v3.9h-1.7v-3.9c0-0.5-0.1-0.9-0.2-1.1c-0.1-0.2-0.3-0.3-0.6-0.3c-0.2,0-0.4,0-0.5,0.1      c-0.2,0.1-0.3,0.2-0.4,0.3v4.9h-1.7v-9.5h1.7V221.8z" id="XMLID_7578_"/></g><g id="XMLID_7567_"><path class="st1" d="M128.5,260c0.2,0,0.4-0.1,0.6-0.3s0.2-0.4,0.2-0.8h1.6l0,0c0,0.7-0.2,1.2-0.7,1.7      c-0.5,0.4-1,0.7-1.7,0.7c-0.9,0-1.5-0.3-2-0.9c-0.5-0.6-0.7-1.4-0.7-2.4v-0.2c0-1,0.2-1.8,0.7-2.4c0.5-0.6,1.1-0.9,2-0.9      c0.7,0,1.3,0.2,1.7,0.7c0.4,0.5,0.6,1.1,0.6,1.8l0,0h-1.6c0-0.4-0.1-0.7-0.2-0.9c-0.1-0.2-0.3-0.3-0.6-0.3      c-0.4,0-0.6,0.2-0.7,0.5c-0.1,0.4-0.2,0.8-0.2,1.4v0.2c0,0.6,0.1,1.1,0.2,1.4C127.9,259.9,128.1,260,128.5,260z" id="XMLID_7575_"/><path class="st1" d="M131.5,257.9c0-1,0.2-1.8,0.7-2.4c0.5-0.6,1.2-0.9,2-0.9c0.9,0,1.5,0.3,2,0.9      c0.5,0.6,0.7,1.4,0.7,2.4v0.1c0,1-0.2,1.8-0.7,2.4c-0.5,0.6-1.2,0.9-2,0.9c-0.9,0-1.6-0.3-2-0.9c-0.5-0.6-0.7-1.4-0.7-2.4V257.9      z M133.3,258c0,0.6,0.1,1.1,0.2,1.5c0.2,0.4,0.4,0.5,0.8,0.5c0.4,0,0.6-0.2,0.8-0.5c0.2-0.4,0.2-0.8,0.2-1.5v-0.1      c0-0.6-0.1-1.1-0.2-1.5c-0.2-0.4-0.4-0.5-0.8-0.5c-0.4,0-0.6,0.2-0.8,0.6c-0.2,0.4-0.2,0.9-0.2,1.4V258z" id="XMLID_7572_"/><path class="st1" d="M141,259.5c0-0.2-0.1-0.4-0.2-0.5c-0.2-0.1-0.4-0.3-0.9-0.5c-0.7-0.2-1.2-0.5-1.5-0.8      c-0.3-0.3-0.5-0.7-0.5-1.2c0-0.5,0.2-1,0.7-1.4c0.4-0.4,1-0.6,1.7-0.6c0.7,0,1.3,0.2,1.8,0.6c0.4,0.4,0.7,0.9,0.6,1.5l0,0h-1.7      c0-0.3-0.1-0.5-0.2-0.7c-0.1-0.2-0.3-0.3-0.6-0.3c-0.2,0-0.4,0.1-0.5,0.2c-0.1,0.1-0.2,0.3-0.2,0.5c0,0.2,0.1,0.4,0.2,0.5      c0.1,0.1,0.4,0.3,0.9,0.5c0.7,0.2,1.2,0.5,1.6,0.8s0.5,0.7,0.5,1.2c0,0.6-0.2,1-0.7,1.4c-0.5,0.4-1.1,0.5-1.8,0.5      c-0.8,0-1.4-0.2-1.8-0.7c-0.5-0.4-0.7-0.9-0.6-1.5l0,0h1.6c0,0.4,0.1,0.6,0.3,0.8c0.2,0.2,0.4,0.2,0.7,0.2      c0.2,0,0.4-0.1,0.6-0.2C140.9,259.9,141,259.7,141,259.5z" id="XMLID_7570_"/><path class="st1" d="M145.2,255.5c0.2-0.3,0.4-0.5,0.6-0.7c0.3-0.2,0.5-0.2,0.8-0.2c0.6,0,1.1,0.2,1.4,0.7      c0.3,0.5,0.5,1.2,0.5,2.1v3.9h-1.7v-3.9c0-0.5-0.1-0.9-0.2-1.1c-0.1-0.2-0.3-0.3-0.6-0.3c-0.2,0-0.4,0-0.5,0.1      c-0.2,0.1-0.3,0.2-0.4,0.3v4.9h-1.7v-9.5h1.7V255.5z" id="XMLID_7568_"/></g><g id="XMLID_7558_"><path class="st1" d="M130.9,326.3L130.9,326.3l1.7-6.5h2.3v8.8h-1.7V323l0,0l-1.6,5.6h-1.2l-1.6-5.6l0,0v5.5      H127v-8.8h2.3L130.9,326.3z" id="XMLID_7565_"/><path class="st1" d="M135.9,325.2c0-1,0.2-1.8,0.7-2.4c0.5-0.6,1.2-0.9,2-0.9s1.5,0.3,2,0.9      c0.5,0.6,0.7,1.4,0.7,2.4v0.1c0,1-0.2,1.8-0.7,2.4c-0.5,0.6-1.2,0.9-2,0.9c-0.9,0-1.6-0.3-2-0.9c-0.5-0.6-0.7-1.4-0.7-2.4V325.2      z M137.7,325.4c0,0.6,0.1,1.1,0.2,1.5c0.2,0.4,0.4,0.5,0.8,0.5c0.4,0,0.6-0.2,0.8-0.5c0.2-0.4,0.2-0.8,0.2-1.5v-0.1      c0-0.6-0.1-1.1-0.2-1.5c-0.2-0.4-0.4-0.5-0.8-0.5s-0.6,0.2-0.8,0.6c-0.2,0.4-0.2,0.9-0.2,1.4V325.4z" id="XMLID_7562_"/><path class="st1" d="M142.2,325.3c0-1,0.2-1.9,0.6-2.5c0.4-0.6,0.9-0.9,1.7-0.9c0.3,0,0.5,0.1,0.7,0.2      c0.2,0.1,0.4,0.3,0.6,0.5v-3.5h1.7v9.5H146l-0.1-0.7c-0.2,0.3-0.4,0.5-0.6,0.6c-0.2,0.1-0.5,0.2-0.8,0.2c-0.7,0-1.3-0.3-1.7-0.9      c-0.4-0.6-0.6-1.4-0.6-2.4V325.3z M143.9,325.5c0,0.6,0.1,1.1,0.2,1.4c0.1,0.3,0.4,0.5,0.7,0.5c0.2,0,0.4,0,0.5-0.1      c0.1-0.1,0.3-0.2,0.4-0.4v-3c-0.1-0.2-0.2-0.3-0.4-0.4c-0.1-0.1-0.3-0.2-0.5-0.2c-0.3,0-0.6,0.2-0.7,0.6      c-0.2,0.4-0.2,0.9-0.2,1.5V325.5z" id="XMLID_7559_"/></g><g id="XMLID_7548_"><path class="st1" d="M128.8,286.7v1.6h1.2v1.2h-1.2v3.2c0,0.3,0,0.6,0.1,0.7c0.1,0.1,0.2,0.2,0.4,0.2      c0.1,0,0.2,0,0.3,0c0.1,0,0.2,0,0.3-0.1l0.2,1.3c-0.2,0.1-0.3,0.1-0.5,0.1c-0.2,0-0.3,0-0.5,0c-0.6,0-1.1-0.2-1.4-0.6      c-0.3-0.4-0.5-1-0.5-1.7v-3.2h-0.8v-1.2h0.8v-1.6H128.8z" id="XMLID_7556_"/><path class="st1" d="M134.1,294.9c-0.1-0.1-0.1-0.3-0.1-0.4s-0.1-0.3-0.1-0.5c-0.1,0.3-0.3,0.6-0.6,0.8      c-0.2,0.2-0.5,0.3-0.9,0.3c-0.6,0-1.1-0.2-1.4-0.5c-0.3-0.4-0.5-0.8-0.5-1.4c0-0.6,0.2-1.1,0.6-1.5c0.4-0.4,1.1-0.5,1.9-0.5h0.7      v-0.5c0-0.3-0.1-0.6-0.2-0.8c-0.1-0.2-0.3-0.3-0.5-0.3c-0.2,0-0.4,0.1-0.5,0.2c-0.1,0.1-0.2,0.3-0.2,0.6h-1.7l0,0      c0-0.6,0.2-1,0.7-1.4c0.5-0.4,1.1-0.6,1.8-0.6c0.7,0,1.3,0.2,1.7,0.6c0.4,0.4,0.7,1,0.7,1.7v2.7c0,0.3,0,0.6,0.1,0.9      c0,0.3,0.1,0.6,0.2,0.8H134.1z M132.9,293.8c0.2,0,0.4-0.1,0.6-0.2c0.2-0.1,0.3-0.3,0.4-0.5v-1h-0.7c-0.3,0-0.5,0.1-0.6,0.3      c-0.1,0.2-0.2,0.4-0.2,0.7c0,0.2,0.1,0.4,0.2,0.6C132.6,293.7,132.7,293.8,132.9,293.8z" id="XMLID_7553_"/><path class="st1" d="M138.3,288.4l0.1,0.9c0.2-0.3,0.4-0.6,0.7-0.8c0.3-0.2,0.6-0.3,0.9-0.3      c0.6,0,1,0.2,1.3,0.7c0.3,0.4,0.5,1.1,0.5,2v4h-1.7v-4c0-0.5-0.1-0.8-0.2-1.1c-0.1-0.2-0.3-0.3-0.6-0.3c-0.2,0-0.4,0-0.5,0.1      c-0.2,0.1-0.3,0.2-0.4,0.4v4.8h-1.7v-6.6H138.3z" id="XMLID_7551_"/><path class="st1" d="M144.7,289.1c0.2-0.3,0.4-0.5,0.6-0.7c0.3-0.2,0.5-0.2,0.8-0.2c0.6,0,1.1,0.2,1.4,0.7      c0.3,0.5,0.5,1.2,0.5,2.1v3.9h-1.7V291c0-0.5-0.1-0.9-0.2-1.1c-0.1-0.2-0.3-0.3-0.6-0.3c-0.2,0-0.4,0-0.5,0.1s-0.3,0.2-0.4,0.3      v4.9h-1.7v-9.5h1.7V289.1z" id="XMLID_7549_"/></g><g id="XMLID_7542_"><g id="XMLID_7545_"><rect class="st15" height="22.3" id="XMLID_7547_" width="32.8" x="121.5" y="343.7"/><rect class="st16" height="22.3" id="XMLID_7546_" width="32.8" x="120.7" y="342.9"/></g><path class="st1" d="M139.5,360.3h-2.3v-9.6l-1.8,0V349l4-0.4V360.3z" id="XMLID_7543_"/></g><g id="XMLID_7535_"><g id="XMLID_7539_"><rect class="st15" height="22.3" id="XMLID_7541_" width="32.8" x="121.5" y="378"/><rect class="st16" height="22.3" id="XMLID_7540_" width="32.8" x="120.7" y="377.1"/></g><path class="st1" d="M140.1,390.5h1v1.8h-1v2.2h-2.3v-2.2h-3.7l-0.1-1.4l3.9-7.9h2.3V390.5z M136,390.5h1.8      v-4.4l0,0l-0.2,0.4L136,390.5z" id="XMLID_7536_"/></g><g id="XMLID_7529_"><g id="XMLID_7532_"><rect class="st15" height="22.3" id="XMLID_7534_" width="32.8" x="121.5" y="412.3"/><rect class="st16" height="22.3" id="XMLID_7533_" width="32.8" x="120.7" y="411.4"/></g><path class="st1" d="M141.2,419c-1.1,1.8-1.9,3.1-2.3,4c-0.4,0.9-0.6,2.2-0.6,3.9v1.8h-2.3v-1.8      c0-1.7,0.3-3.1,0.8-4.3c0.5-1.1,1.3-2.3,2.2-3.7h-5.2v-1.8h7.4V419z" id="XMLID_7530_"/></g><g id="XMLID_7522_"><g id="XMLID_7526_"><rect class="st15" height="22.3" id="XMLID_7528_" width="32.8" x="121.5" y="446.6"/><rect class="st16" height="22.3" id="XMLID_7527_" width="32.8" x="120.7" y="445.7"/></g><path class="st1" d="M141,459c0,1.3-0.3,2.4-1,3.1c-0.6,0.8-1.5,1.1-2.5,1.1c-1,0-1.9-0.4-2.5-1.1      s-1-1.8-1-3.1v-3.4c0-1.3,0.3-2.3,0.9-3.1c0.6-0.8,1.5-1.1,2.5-1.1c1,0,1.9,0.4,2.5,1.1s1,1.8,1,3.1V459z M138.7,455.5      c0-0.8-0.1-1.3-0.3-1.8c-0.2-0.4-0.5-0.6-0.9-0.6c-0.4,0-0.7,0.2-0.9,0.6c-0.2,0.4-0.3,1-0.3,1.8v3.5c0,0.8,0.1,1.4,0.3,1.8      c0.2,0.4,0.5,0.6,0.9,0.6c0.4,0,0.7-0.2,0.9-0.6c0.2-0.4,0.3-1,0.3-1.8V455.5z" id="XMLID_7523_"/></g><rect class="st13" height="21.9" id="XMLID_7521_" width="32.2" x="177" y="212.4"/><path class="st14" d="M207.2,233.4h-29.7c-0.7,0-1.2-0.6-1.2-1.2v-19.4c0-0.7,0.6-1.2,1.2-1.2h29.7     c0.7,0,1.2,0.6,1.2,1.2v19.4C208.4,232.9,207.8,233.4,207.2,233.4z" id="XMLID_7520_"/><rect class="st13" height="21.9" id="XMLID_7519_" width="32.2" x="177" y="246.1"/><path class="st14" d="M207.2,267.1h-29.7c-0.7,0-1.2-0.6-1.2-1.2v-19.4c0-0.7,0.6-1.2,1.2-1.2h29.7     c0.7,0,1.2,0.6,1.2,1.2v19.4C208.4,266.6,207.8,267.1,207.2,267.1z" id="XMLID_7518_"/><rect class="st13" height="21.9" id="XMLID_7517_" width="32.2" x="177" y="279.7"/><path class="st14" d="M207.2,300.8h-29.7c-0.7,0-1.2-0.6-1.2-1.2v-19.4c0-0.7,0.6-1.2,1.2-1.2h29.7     c0.7,0,1.2,0.6,1.2,1.2v19.4C208.4,300.2,207.8,300.8,207.2,300.8z" id="XMLID_7516_"/><rect class="st13" height="21.9" id="XMLID_7515_" width="32.2" x="177" y="313.4"/><path class="st14" d="M207.2,334.4h-29.7c-0.7,0-1.2-0.6-1.2-1.2v-19.4c0-0.7,0.6-1.2,1.2-1.2h29.7     c0.7,0,1.2,0.6,1.2,1.2v19.4C208.4,333.9,207.8,334.4,207.2,334.4z" id="XMLID_7514_"/><path class="st1" d="M189,225.9c0-0.2-0.1-0.4-0.2-0.5c-0.2-0.1-0.4-0.3-0.9-0.5c-0.7-0.2-1.2-0.5-1.5-0.8     c-0.3-0.3-0.5-0.7-0.5-1.2c0-0.5,0.2-1,0.7-1.4c0.4-0.4,1-0.6,1.7-0.6c0.7,0,1.3,0.2,1.8,0.6c0.4,0.4,0.7,0.9,0.6,1.5l0,0h-1.7     c0-0.3-0.1-0.5-0.2-0.7c-0.1-0.2-0.3-0.3-0.6-0.3c-0.2,0-0.4,0.1-0.5,0.2c-0.1,0.1-0.2,0.3-0.2,0.5c0,0.2,0.1,0.4,0.2,0.5     c0.1,0.1,0.4,0.3,0.9,0.5c0.7,0.2,1.2,0.5,1.6,0.8c0.3,0.3,0.5,0.7,0.5,1.2c0,0.6-0.2,1-0.7,1.4c-0.5,0.4-1.1,0.5-1.8,0.5     c-0.8,0-1.4-0.2-1.8-0.7c-0.5-0.4-0.7-0.9-0.6-1.5l0,0h1.6c0,0.4,0.1,0.6,0.3,0.8c0.2,0.2,0.4,0.2,0.7,0.2c0.2,0,0.4-0.1,0.6-0.2     C188.9,226.2,189,226.1,189,225.9z" id="XMLID_7512_"/><path class="st1" d="M193.4,219.4h-1.7v-1.3h1.7V219.4z M193.4,227.6h-1.7V221h1.7V227.6z" id="XMLID_7509_"/><path class="st1" d="M196.2,221l0.1,0.9c0.2-0.3,0.4-0.6,0.7-0.8c0.3-0.2,0.6-0.3,0.9-0.3c0.6,0,1,0.2,1.3,0.7     s0.5,1.1,0.5,2v4H198v-4c0-0.5-0.1-0.8-0.2-1.1c-0.1-0.2-0.3-0.3-0.6-0.3c-0.2,0-0.4,0-0.5,0.1c-0.2,0.1-0.3,0.2-0.4,0.4v4.8     h-1.7V221H196.2z" id="XMLID_7507_"/><path class="st1" d="M187,258.7c0.2,0,0.4-0.1,0.6-0.3s0.2-0.4,0.2-0.8h1.6l0,0c0,0.7-0.2,1.2-0.7,1.7     c-0.5,0.4-1,0.7-1.7,0.7c-0.9,0-1.5-0.3-2-0.9c-0.5-0.6-0.7-1.4-0.7-2.4v-0.2c0-1,0.2-1.8,0.7-2.4c0.5-0.6,1.1-0.9,2-0.9     c0.7,0,1.3,0.2,1.7,0.7c0.4,0.5,0.6,1.1,0.6,1.8l0,0h-1.6c0-0.4-0.1-0.7-0.2-0.9c-0.1-0.2-0.3-0.3-0.6-0.3     c-0.4,0-0.6,0.2-0.7,0.5c-0.1,0.4-0.2,0.8-0.2,1.4v0.2c0,0.6,0.1,1.1,0.2,1.4C186.4,258.5,186.6,258.7,187,258.7z" id="XMLID_7505_"/><path class="st1" d="M190,256.5c0-1,0.2-1.8,0.7-2.4c0.5-0.6,1.2-0.9,2-0.9c0.9,0,1.5,0.3,2,0.9     c0.5,0.6,0.7,1.4,0.7,2.4v0.1c0,1-0.2,1.8-0.7,2.4c-0.5,0.6-1.2,0.9-2,0.9c-0.9,0-1.6-0.3-2-0.9c-0.5-0.6-0.7-1.4-0.7-2.4V256.5z      M191.7,256.7c0,0.6,0.1,1.1,0.2,1.5c0.2,0.4,0.4,0.5,0.8,0.5c0.4,0,0.6-0.2,0.8-0.5c0.2-0.4,0.2-0.8,0.2-1.5v-0.1     c0-0.6-0.1-1.1-0.2-1.5c-0.2-0.4-0.4-0.5-0.8-0.5c-0.4,0-0.6,0.2-0.8,0.6c-0.2,0.4-0.2,0.9-0.2,1.4V256.7z" id="XMLID_7502_"/><path class="st1" d="M199.4,258.2c0-0.2-0.1-0.4-0.2-0.5c-0.2-0.1-0.4-0.3-0.9-0.5c-0.7-0.2-1.2-0.5-1.5-0.8     c-0.3-0.3-0.5-0.7-0.5-1.2c0-0.5,0.2-1,0.7-1.4c0.4-0.4,1-0.6,1.7-0.6c0.7,0,1.3,0.2,1.8,0.6c0.4,0.4,0.7,0.9,0.6,1.5l0,0h-1.7     c0-0.3-0.1-0.5-0.2-0.7c-0.1-0.2-0.3-0.3-0.6-0.3c-0.2,0-0.4,0.1-0.5,0.2c-0.1,0.1-0.2,0.3-0.2,0.5c0,0.2,0.1,0.4,0.2,0.5     c0.1,0.1,0.4,0.3,0.9,0.5c0.7,0.2,1.2,0.5,1.6,0.8c0.3,0.3,0.5,0.7,0.5,1.2c0,0.6-0.2,1-0.7,1.4c-0.5,0.4-1.1,0.5-1.8,0.5     c-0.8,0-1.4-0.2-1.8-0.7c-0.5-0.4-0.7-0.9-0.6-1.5l0,0h1.6c0,0.4,0.1,0.6,0.3,0.8s0.4,0.2,0.7,0.2c0.2,0,0.4-0.1,0.6-0.2     C199.4,258.5,199.4,258.4,199.4,258.2z" id="XMLID_7500_"/><path class="st1" d="M187.3,327.3h-1.7v-9.5h1.7V327.3z" id="XMLID_7498_"/><path class="st1" d="M188.3,324c0-1,0.2-1.8,0.7-2.4c0.5-0.6,1.2-0.9,2-0.9c0.9,0,1.5,0.3,2,0.9     c0.5,0.6,0.7,1.4,0.7,2.4v0.1c0,1-0.2,1.8-0.7,2.4c-0.5,0.6-1.2,0.9-2,0.9c-0.9,0-1.6-0.3-2-0.9c-0.5-0.6-0.7-1.4-0.7-2.4V324z      M190,324.1c0,0.6,0.1,1.1,0.2,1.5c0.2,0.4,0.4,0.5,0.8,0.5c0.4,0,0.6-0.2,0.8-0.5c0.2-0.4,0.2-0.8,0.2-1.5V324     c0-0.6-0.1-1.1-0.2-1.5c-0.2-0.4-0.4-0.5-0.8-0.5c-0.4,0-0.6,0.2-0.8,0.6c-0.2,0.4-0.2,0.9-0.2,1.4V324.1z" id="XMLID_7495_"/><path class="st1" d="M194.5,324.1c0-1,0.2-1.9,0.6-2.5c0.4-0.6,1-0.9,1.7-0.9c0.3,0,0.6,0.1,0.8,0.2     c0.2,0.2,0.4,0.4,0.6,0.7l0.1-0.8h1.5v6.5c0,0.9-0.3,1.5-0.8,2c-0.5,0.5-1.2,0.7-2.1,0.7c-0.3,0-0.6,0-0.9-0.1     c-0.3-0.1-0.6-0.2-0.9-0.4l0.3-1.3c0.2,0.1,0.5,0.2,0.7,0.3c0.2,0.1,0.5,0.1,0.8,0.1c0.4,0,0.7-0.1,0.9-0.3s0.3-0.5,0.3-1v-0.5     c-0.2,0.2-0.4,0.4-0.6,0.5c-0.2,0.1-0.5,0.2-0.7,0.2c-0.7,0-1.3-0.3-1.7-0.9c-0.4-0.6-0.6-1.4-0.6-2.4V324.1z M196.3,324.2     c0,0.6,0.1,1.1,0.2,1.4c0.1,0.3,0.4,0.5,0.7,0.5c0.2,0,0.4,0,0.5-0.1c0.1-0.1,0.3-0.2,0.4-0.4v-3.1c-0.1-0.2-0.2-0.3-0.4-0.4     c-0.1-0.1-0.3-0.1-0.5-0.1c-0.3,0-0.6,0.2-0.7,0.6c-0.2,0.4-0.2,0.9-0.2,1.5V324.2z" id="XMLID_7492_"/><path class="st1" d="M187.4,286.1v1.6h1.2v1.2h-1.2v3.2c0,0.3,0,0.6,0.1,0.7c0.1,0.1,0.2,0.2,0.4,0.2     c0.1,0,0.2,0,0.3,0c0.1,0,0.2,0,0.3-0.1l0.2,1.3c-0.2,0.1-0.3,0.1-0.5,0.1c-0.2,0-0.3,0-0.5,0c-0.6,0-1.1-0.2-1.4-0.6     c-0.3-0.4-0.5-1-0.5-1.7v-3.2h-0.8v-1.2h0.8v-1.6H187.4z" id="XMLID_7490_"/><path class="st1" d="M192.7,294.3c-0.1-0.1-0.1-0.3-0.1-0.4c0-0.2-0.1-0.3-0.1-0.5c-0.1,0.3-0.3,0.6-0.6,0.8     c-0.2,0.2-0.5,0.3-0.9,0.3c-0.6,0-1.1-0.2-1.4-0.5c-0.3-0.4-0.5-0.8-0.5-1.4c0-0.6,0.2-1.1,0.6-1.5c0.4-0.4,1.1-0.5,1.9-0.5h0.7     v-0.5c0-0.3-0.1-0.6-0.2-0.8c-0.1-0.2-0.3-0.3-0.5-0.3c-0.2,0-0.4,0.1-0.5,0.2c-0.1,0.1-0.2,0.3-0.2,0.6h-1.7l0,0     c0-0.6,0.2-1,0.7-1.4c0.5-0.4,1.1-0.6,1.8-0.6c0.7,0,1.3,0.2,1.7,0.6c0.4,0.4,0.7,1,0.7,1.7v2.7c0,0.3,0,0.6,0.1,0.9     c0,0.3,0.1,0.6,0.2,0.8H192.7z M191.5,293.1c0.2,0,0.4-0.1,0.6-0.2c0.2-0.1,0.3-0.3,0.4-0.5v-1h-0.7c-0.3,0-0.5,0.1-0.6,0.3     c-0.1,0.2-0.2,0.4-0.2,0.7c0,0.2,0.1,0.4,0.2,0.6C191.2,293.1,191.3,293.1,191.5,293.1z" id="XMLID_7487_"/><path class="st1" d="M196.9,287.7l0.1,0.9c0.2-0.3,0.4-0.6,0.7-0.8c0.3-0.2,0.6-0.3,0.9-0.3     c0.6,0,1,0.2,1.3,0.7c0.3,0.4,0.5,1.1,0.5,2v4h-1.7v-4c0-0.5-0.1-0.8-0.2-1.1c-0.1-0.2-0.3-0.3-0.6-0.3c-0.2,0-0.4,0-0.5,0.1     s-0.3,0.2-0.4,0.4v4.8h-1.7v-6.6H196.9z" id="XMLID_7485_"/><g id="XMLID_7479_"><g id="XMLID_7482_"><rect class="st15" height="22.3" id="XMLID_7484_" width="32.8" x="177.9" y="343.7"/><rect class="st16" height="22.3" id="XMLID_7483_" width="32.8" x="177" y="342.9"/></g><path class="st1" d="M197.4,360.3h-7v-1.7l3.5-3.9c0.5-0.6,0.7-1.1,0.9-1.4c0.1-0.4,0.2-0.8,0.2-1.3      c0-0.5-0.1-0.9-0.2-1.2c-0.2-0.3-0.5-0.4-0.9-0.4c-0.4,0-0.7,0.2-0.9,0.5c-0.2,0.4-0.3,0.8-0.3,1.3h-2.2l0,0      c0-1,0.3-1.8,0.9-2.5c0.6-0.7,1.5-1,2.5-1c1.1,0,1.9,0.3,2.5,0.9c0.6,0.6,0.9,1.4,0.9,2.5c0,0.8-0.2,1.5-0.5,2.1      c-0.3,0.6-0.9,1.4-1.7,2.2l-1.6,2.2h4.1V360.3z" id="XMLID_7480_"/></g><g id="XMLID_7473_"><g id="XMLID_7476_"><rect class="st15" height="22.3" id="XMLID_7478_" width="32.8" x="177.9" y="378"/><rect class="st16" height="22.3" id="XMLID_7477_" width="32.8" x="177" y="377.1"/></g><path class="st1" d="M190.7,389.3l0.6-6.4h5.5v1.8h-3.6l-0.3,2.8c0.2-0.2,0.4-0.3,0.7-0.4      c0.3-0.1,0.5-0.2,0.8-0.2c0.9,0,1.7,0.3,2.2,1c0.5,0.7,0.7,1.7,0.7,2.9c0,1.1-0.3,2.1-0.8,2.8c-0.6,0.7-1.4,1.1-2.6,1.1      c-0.9,0-1.7-0.3-2.4-0.8c-0.6-0.6-1-1.3-0.9-2.3l0,0l2.2-0.1c0,0.5,0.1,0.9,0.3,1.1s0.5,0.4,0.8,0.4c0.4,0,0.7-0.2,0.9-0.5      s0.3-0.9,0.3-1.6c0-0.7-0.1-1.2-0.3-1.6c-0.2-0.4-0.5-0.6-1-0.6c-0.3,0-0.5,0.1-0.7,0.3c-0.2,0.2-0.3,0.4-0.3,0.7L190.7,389.3z" id="XMLID_7474_"/></g><g id="XMLID_7465_"><g id="XMLID_7470_"><rect class="st15" height="22.3" id="XMLID_7472_" width="32.8" x="177.9" y="412.3"/><rect class="st16" height="22.3" id="XMLID_7471_" width="32.8" x="177" y="411.4"/></g><path class="st1" d="M197.1,420.2c0,0.6-0.1,1.1-0.4,1.5c-0.3,0.4-0.6,0.8-1.1,1c0.5,0.3,1,0.6,1.3,1.1      c0.3,0.5,0.5,1,0.5,1.7c0,1.1-0.3,1.9-1,2.5c-0.6,0.6-1.5,0.9-2.5,0.9c-1.1,0-1.9-0.3-2.6-0.9c-0.7-0.6-1-1.4-1-2.5      c0-0.6,0.2-1.2,0.5-1.7c0.3-0.5,0.8-0.8,1.4-1.1c-0.5-0.2-0.9-0.6-1.1-1c-0.3-0.4-0.4-0.9-0.4-1.5c0-1,0.3-1.8,0.9-2.3      c0.6-0.6,1.4-0.8,2.4-0.8c0.9,0,1.7,0.3,2.3,0.8C196.8,418.4,197.1,419.2,197.1,420.2z M195.1,425.4c0-0.5-0.1-1-0.3-1.3      c-0.2-0.3-0.5-0.5-0.9-0.5c-0.4,0-0.7,0.2-1,0.5c-0.2,0.3-0.4,0.8-0.4,1.3c0,0.5,0.1,1,0.4,1.3c0.2,0.3,0.6,0.5,1,0.5      c0.4,0,0.7-0.2,0.9-0.5C195,426.4,195.1,426,195.1,425.4z M194.9,420.3c0-0.5-0.1-0.8-0.3-1.1c-0.2-0.3-0.4-0.4-0.7-0.4      c-0.3,0-0.6,0.1-0.8,0.4c-0.2,0.3-0.3,0.6-0.3,1.1c0,0.5,0.1,0.9,0.3,1.2c0.2,0.3,0.4,0.4,0.8,0.4c0.3,0,0.5-0.1,0.7-0.4      C194.8,421.2,194.9,420.8,194.9,420.3z" id="XMLID_7466_"/></g><g id="XMLID_7454_"><g id="XMLID_7462_"><rect class="st15" height="22.3" id="XMLID_7464_" width="32.8" x="177.9" y="446.6"/><rect class="st16" height="22.3" id="XMLID_7463_" width="32.8" x="177" y="445.7"/></g><g id="XMLID_7455_"><path class="st1" d="M192.6,459c0,1.3-0.3,2.4-1,3.1c-0.6,0.8-1.5,1.1-2.5,1.1c-1,0-1.9-0.4-2.5-1.1       c-0.6-0.8-1-1.8-1-3.1v-3.4c0-1.3,0.3-2.3,0.9-3.1c0.6-0.8,1.5-1.1,2.5-1.1c1,0,1.9,0.4,2.5,1.1s1,1.8,1,3.1V459z M190.3,455.5       c0-0.8-0.1-1.3-0.3-1.8c-0.2-0.4-0.5-0.6-0.9-0.6c-0.4,0-0.7,0.2-0.9,0.6c-0.2,0.4-0.3,1-0.3,1.8v3.5c0,0.8,0.1,1.4,0.3,1.8       c0.2,0.4,0.5,0.6,0.9,0.6c0.4,0,0.7-0.2,0.9-0.6c0.2-0.4,0.3-1,0.3-1.8V455.5z" id="XMLID_7459_"/><path class="st1" d="M202.1,459c0,1.3-0.3,2.4-1,3.1c-0.6,0.8-1.5,1.1-2.5,1.1c-1,0-1.9-0.4-2.5-1.1       c-0.6-0.8-1-1.8-1-3.1v-3.4c0-1.3,0.3-2.3,0.9-3.1c0.6-0.8,1.5-1.1,2.5-1.1c1,0,1.9,0.4,2.5,1.1s1,1.8,1,3.1V459z M199.9,455.5       c0-0.8-0.1-1.3-0.3-1.8c-0.2-0.4-0.5-0.6-0.9-0.6c-0.4,0-0.7,0.2-0.9,0.6c-0.2,0.4-0.3,1-0.3,1.8v3.5c0,0.8,0.1,1.4,0.3,1.8       c0.2,0.4,0.5,0.6,0.9,0.6c0.4,0,0.7-0.2,0.9-0.6c0.2-0.4,0.3-1,0.3-1.8V455.5z" id="XMLID_7456_"/></g></g><g id="XMLID_7448_"><g id="XMLID_7451_"><rect class="st15" height="22.3" id="XMLID_7453_" width="32.8" x="234.2" y="343.7"/><rect class="st16" height="22.3" id="XMLID_7452_" width="32.8" x="233.4" y="342.9"/></g><path class="st1" d="M250.2,353.5c0.4,0,0.7-0.1,0.8-0.4c0.2-0.3,0.3-0.7,0.3-1.2c0-0.4-0.1-0.8-0.3-1.1      c-0.2-0.3-0.5-0.4-0.9-0.4c-0.3,0-0.6,0.1-0.7,0.4c-0.2,0.3-0.3,0.6-0.3,1h-2.2l0,0c0-0.9,0.3-1.7,0.9-2.2      c0.6-0.6,1.4-0.9,2.4-0.9c1.1,0,1.9,0.3,2.6,0.9c0.6,0.6,0.9,1.4,0.9,2.4c0,0.5-0.1,1-0.4,1.5c-0.3,0.4-0.6,0.8-1.1,1      c0.5,0.2,0.9,0.6,1.2,1c0.3,0.5,0.4,1,0.4,1.7c0,1.1-0.3,1.9-1,2.5c-0.7,0.6-1.6,0.9-2.6,0.9c-0.9,0-1.7-0.3-2.4-0.8      c-0.7-0.6-1-1.4-1-2.5l0,0h2.2c0,0.5,0.1,0.9,0.3,1.2c0.2,0.3,0.5,0.5,0.9,0.5c0.4,0,0.8-0.2,1-0.5c0.2-0.3,0.4-0.7,0.4-1.2      c0-0.6-0.1-1.1-0.3-1.4c-0.2-0.3-0.5-0.4-0.9-0.4h-1.4v-1.7H250.2z" id="XMLID_7449_"/></g><g id="XMLID_7441_"><g id="XMLID_7445_"><rect class="st15" height="22.3" id="XMLID_7447_" width="32.8" x="234.2" y="378"/><rect class="st16" height="22.3" id="XMLID_7446_" width="32.8" x="233.4" y="377.1"/></g><path class="st1" d="M250.6,382.8c0.4,0,0.8,0,1.1,0.1c0.3,0.1,0.7,0.2,1,0.4l-0.4,1.7      c-0.3-0.1-0.6-0.2-0.8-0.3c-0.2-0.1-0.5-0.1-0.8-0.1c-0.5,0-0.9,0.2-1.2,0.6c-0.3,0.4-0.5,1-0.5,1.8v0.8      c0.2-0.3,0.5-0.5,0.8-0.6c0.3-0.1,0.7-0.2,1.1-0.2c1,0,1.7,0.3,2.2,1c0.5,0.7,0.7,1.6,0.7,2.8c0,1.1-0.3,2.1-1,2.8      c-0.6,0.7-1.5,1.1-2.6,1.1c-1,0-1.9-0.4-2.6-1.1c-0.7-0.7-1-1.7-1-3V387c0-1.3,0.4-2.3,1.1-3.1      C248.5,383.2,249.5,382.8,250.6,382.8z M250.2,388.7c-0.3,0-0.6,0.1-0.8,0.2c-0.2,0.1-0.4,0.3-0.5,0.4v1.2      c0,0.8,0.1,1.3,0.4,1.8c0.2,0.4,0.6,0.6,0.9,0.6c0.4,0,0.7-0.2,0.9-0.6c0.2-0.4,0.3-0.9,0.3-1.5c0-0.7-0.1-1.2-0.3-1.5      C251,388.9,250.7,388.7,250.2,388.7z" id="XMLID_7442_"/></g><g id="XMLID_7434_"><g id="XMLID_7438_"><rect class="st15" height="22.3" id="XMLID_7440_" width="32.8" x="234.2" y="412.3"/><rect class="st16" height="22.3" id="XMLID_7439_" width="32.8" x="233.4" y="411.4"/></g><path class="st1" d="M249.9,427.2c0.4,0,0.8-0.2,1.1-0.6c0.3-0.4,0.4-0.9,0.4-1.6V424      c-0.2,0.3-0.5,0.6-0.8,0.7c-0.3,0.2-0.6,0.2-1,0.2c-0.9,0-1.7-0.3-2.2-1c-0.5-0.7-0.8-1.6-0.8-2.8c0-1.1,0.3-2.1,1-2.9      c0.7-0.8,1.5-1.1,2.5-1.1c1,0,1.9,0.4,2.5,1.1c0.7,0.7,1,1.7,1,3v3.8c0,1.2-0.4,2.2-1.1,2.9c-0.7,0.7-1.6,1.1-2.7,1.1      c-0.4,0-0.7,0-1.1-0.1c-0.4-0.1-0.7-0.2-1.1-0.4l0.4-1.6c0.3,0.1,0.6,0.2,0.8,0.3C249.3,427.2,249.6,427.2,249.9,427.2z       M250.1,423.3c0.3,0,0.5-0.1,0.8-0.2c0.2-0.1,0.4-0.3,0.5-0.6V421c0-0.7-0.1-1.3-0.3-1.6c-0.2-0.4-0.5-0.6-0.9-0.6      c-0.4,0-0.7,0.2-0.9,0.7c-0.2,0.4-0.3,1-0.3,1.6c0,0.7,0.1,1.2,0.3,1.6C249.5,423.1,249.8,423.3,250.1,423.3z" id="XMLID_7435_"/></g><g id="XMLID_7429_"><g id="XMLID_7431_"><rect class="st15" height="22.3" id="XMLID_7433_" width="32.8" x="234.2" y="446.6"/><rect class="st16" height="22.3" id="XMLID_7432_" width="32.8" x="233.4" y="445.7"/></g><circle class="st1" cx="250.2" cy="457.3" id="XMLID_7430_" r="2.7"/></g><g id="XMLID_7426_"><rect class="st13" height="21.9" id="XMLID_7428_" width="32.2" x="232.5" y="212.4"/><path class="st14" d="M262.6,233.4h-29.7c-0.7,0-1.2-0.6-1.2-1.2v-19.4c0-0.7,0.6-1.2,1.2-1.2h29.7      c0.7,0,1.2,0.6,1.2,1.2v19.4C263.9,232.9,263.3,233.4,262.6,233.4z" id="XMLID_7427_"/></g><g id="XMLID_7423_"><rect class="st13" height="21.9" id="XMLID_7425_" width="32.2" x="232.5" y="246.1"/><path class="st14" d="M262.6,267.1h-29.7c-0.7,0-1.2-0.6-1.2-1.2v-19.4c0-0.7,0.6-1.2,1.2-1.2h29.7      c0.7,0,1.2,0.6,1.2,1.2v19.4C263.9,266.6,263.3,267.1,262.6,267.1z" id="XMLID_7424_"/></g><g id="XMLID_7420_"><rect class="st13" height="21.9" id="XMLID_7422_" width="32.2" x="232.5" y="279.7"/><path class="st14" d="M262.6,300.8h-29.7c-0.7,0-1.2-0.6-1.2-1.2v-19.4c0-0.7,0.6-1.2,1.2-1.2h29.7      c0.7,0,1.2,0.6,1.2,1.2v19.4C263.9,300.2,263.3,300.8,262.6,300.8z" id="XMLID_7421_"/></g><g id="XMLID_7417_"><rect class="st13" height="21.9" id="XMLID_7419_" width="32.2" x="232.5" y="313.4"/><path class="st14" d="M262.6,334.4h-29.7c-0.7,0-1.2-0.6-1.2-1.2v-19.4c0-0.7,0.6-1.2,1.2-1.2h29.7      c0.7,0,1.2,0.6,1.2,1.2v19.4C263.9,333.9,263.3,334.4,262.6,334.4z" id="XMLID_7418_"/></g><g id="XMLID_7316_"><path class="st1" d="M244.1,323.2h-2.8v2.6h3.3v1.3h-5v-8.8h5v1.3h-3.3v2.3h2.8V323.2z" id="XMLID_7415_"/><path class="st1" d="M248,322.6L248,322.6l0.8-2.1h2l-1.7,3.2l1.7,3.3h-2l-0.8-2.2h0l-0.8,2.2h-2l1.7-3.3      l-1.7-3.2h2L248,322.6z" id="XMLID_7413_"/><path class="st1" d="M256.8,323.9c0,1-0.2,1.8-0.6,2.4c-0.4,0.6-0.9,0.9-1.7,0.9c-0.3,0-0.5-0.1-0.8-0.2      c-0.2-0.1-0.4-0.3-0.6-0.5v3.1h-1.7v-9.1h1.6l0.1,0.7c0.2-0.3,0.4-0.5,0.6-0.6c0.2-0.1,0.5-0.2,0.8-0.2c0.7,0,1.3,0.3,1.7,0.9      c0.4,0.6,0.6,1.5,0.6,2.5V323.9z M255,323.8c0-0.6-0.1-1.1-0.2-1.5c-0.2-0.4-0.4-0.6-0.7-0.6c-0.2,0-0.4,0-0.5,0.1      c-0.1,0.1-0.3,0.2-0.3,0.4v3.1c0.1,0.2,0.2,0.3,0.3,0.3c0.1,0.1,0.3,0.1,0.5,0.1c0.3,0,0.6-0.2,0.7-0.5c0.1-0.3,0.2-0.8,0.2-1.4      V323.8z" id="XMLID_7317_"/></g><g id="XMLID_7311_"><path class="st1" d="M246.3,290.5L246.3,290.5l1-2.7h2.5l-2.2,4.2l2.2,4.3h-2.5l-1-2.8h0l-1,2.8h-2.5l2.2-4.3      l-2.2-4.2h2.5L246.3,290.5z" id="XMLID_7314_"/><path class="st1" d="M253.5,290h-3.4v-0.9l1.7-1.9c0.2-0.3,0.4-0.5,0.4-0.7c0.1-0.2,0.1-0.4,0.1-0.6      c0-0.2,0-0.4-0.1-0.6c-0.1-0.1-0.2-0.2-0.4-0.2c-0.2,0-0.3,0.1-0.4,0.3c-0.1,0.2-0.2,0.4-0.2,0.7h-1.1l0,0      c0-0.5,0.1-0.9,0.4-1.2c0.3-0.3,0.7-0.5,1.2-0.5c0.5,0,0.9,0.1,1.2,0.4c0.3,0.3,0.4,0.7,0.4,1.2c0,0.4-0.1,0.7-0.3,1      c-0.2,0.3-0.4,0.7-0.8,1.1l-0.8,1.1h2V290z" id="XMLID_7312_"/></g><g id="XMLID_7305_"><path class="st1" d="M246,223.2L246,223.2l1-2.7h2.5l-2.2,4.2l1.3,2.5c0.4,0.8-0.2,1.8-1.1,1.8h-0.5l-1-2.8h0      l-1,2.8h-0.5c-0.9,0-1.5-1-1.1-1.8l1.3-2.5l-2.2-4.2h2.5L246,223.2z" id="XMLID_7309_"/><g id="XMLID_7306_"><path class="st1" d="M252.1,219.3L252.1,219.3L252.1,219.3l0.6-2.4h1.2l-1.4,4.7c-0.1,0.3-0.2,0.5-0.4,0.7       c-0.2,0.2-0.4,0.3-0.8,0.3c-0.1,0-0.2,0-0.2,0c-0.1,0-0.2,0-0.3-0.1l0.1-0.8c0,0,0.1,0,0.1,0c0,0,0.1,0,0.1,0       c0.2,0,0.3,0,0.4-0.1c0.1-0.1,0.1-0.2,0.2-0.3l0.1-0.3l-1.2-4.1h1.2L252.1,219.3z" id="XMLID_7307_"/></g></g><g id="XMLID_7300_"><g id="XMLID_7302_"><rect class="st1" height="1.4" id="XMLID_7304_" width="8.6" x="243.9" y="253.9"/><rect class="st1" height="8.6" id="XMLID_7303_" width="1.4" x="247.5" y="250.4"/></g><rect class="st1" height="1.4" id="XMLID_7301_" width="8.6" x="243.9" y="261.4"/></g><g id="XMLID_7297_"><polygon class="st17" id="XMLID_7299_" points="321.7,468.9 288.9,468.9 289.3,413.1 322.1,413.1     "/><polygon class="st18" id="XMLID_7298_" points="320.8,468 288,468 288.4,412.3 321.2,412.3     "/></g><g id="XMLID_7294_"><rect class="st1" height="2" id="XMLID_7296_" width="12.3" x="298.9" y="439.6"/><rect class="st1" height="12.3" id="XMLID_7295_" width="2" x="304.1" y="434.4"/></g><g id="XMLID_7287_"><g id="XMLID_7291_"><rect class="st17" height="22.3" id="XMLID_7293_" width="32.8" x="288.9" y="378"/><rect class="st18" height="22.3" id="XMLID_7292_" width="32.8" x="288" y="377.1"/></g><g id="XMLID_7288_"><rect class="st1" height="2" id="XMLID_7290_" transform="matrix(0.7071 0.7071 -0.7071 0.7071 364.1436 -101.7061)" width="12.3" x="298.7" y="387.7"/><rect class="st1" height="2" id="XMLID_7289_" transform="matrix(-0.7071 0.7071 -0.7071 -0.7071 795.2551 448.0088)" width="12.3" x="298.7" y="387.7"/></g></g><g id="XMLID_7282_"><g id="XMLID_7284_"><rect class="st17" height="22.3" id="XMLID_7286_" width="32.8" x="288.9" y="343.7"/><rect class="st18" height="22.3" id="XMLID_7285_" width="32.8" x="288" y="342.9"/></g><rect class="st1" height="2" id="XMLID_7283_" transform="matrix(-0.7071 0.7071 -0.7071 -0.7071 771.0076 389.4701)" width="12.3" x="298.7" y="353.4"/></g><g id="XMLID_7279_"><rect class="st13" height="21.9" id="XMLID_7281_" width="32.2" x="290.3" y="246.1"/><rect class="st14" height="21.9" id="XMLID_7280_" width="32.2" x="289.5" y="245.2"/></g><g id="XMLID_7276_"><rect class="st13" height="21.9" id="XMLID_7278_" width="32.2" x="290.3" y="279.7"/><rect class="st14" height="21.9" id="XMLID_7277_" width="32.2" x="289.5" y="278.9"/></g><g id="XMLID_7273_"><rect class="st13" height="21.9" id="XMLID_7275_" width="32.2" x="290.3" y="313.4"/><rect class="st14" height="21.9" id="XMLID_7274_" width="32.2" x="289.5" y="312.6"/></g><g id="XMLID_7267_"><path class="st1" d="M303.6,254.4l0.1,0.9c0.2-0.3,0.4-0.6,0.7-0.8c0.3-0.2,0.6-0.3,0.9-0.3      c0.6,0,1,0.2,1.3,0.7c0.3,0.4,0.5,1.1,0.5,2v4h-1.7v-4c0-0.5-0.1-0.8-0.2-1.1c-0.1-0.2-0.3-0.3-0.6-0.3c-0.2,0-0.4,0-0.5,0.1      c-0.2,0.1-0.3,0.2-0.4,0.4v4.8H302v-6.6H303.6z" id="XMLID_7271_"/><path class="st1" d="M310.1,257.9h-1.7v-5.8h1.7V257.9z M310.1,261h-1.7v-1.6h1.7V261z" id="XMLID_7268_"/></g><g id="XMLID_7259_"><path class="st1" d="M295.6,291.7c0-1,0.2-1.9,0.6-2.5c0.4-0.6,0.9-0.9,1.7-0.9c0.3,0,0.5,0.1,0.7,0.2      c0.2,0.1,0.4,0.3,0.6,0.5v-3.5h1.7v9.5h-1.5l-0.1-0.7c-0.2,0.3-0.4,0.5-0.6,0.6c-0.2,0.1-0.5,0.2-0.8,0.2      c-0.7,0-1.3-0.3-1.7-0.9c-0.4-0.6-0.6-1.4-0.6-2.4V291.7z M297.4,291.8c0,0.6,0.1,1.1,0.2,1.4c0.1,0.3,0.4,0.5,0.7,0.5      c0.2,0,0.4,0,0.5-0.1c0.1-0.1,0.3-0.2,0.4-0.4v-3c-0.1-0.2-0.2-0.3-0.4-0.4c-0.1-0.1-0.3-0.2-0.5-0.2c-0.3,0-0.6,0.2-0.7,0.6      c-0.2,0.4-0.2,0.9-0.2,1.5V291.8z" id="XMLID_7264_"/><path class="st1" d="M303.7,288.4l0.1,0.9c0.2-0.3,0.4-0.6,0.7-0.7c0.3-0.2,0.6-0.3,1-0.3      c0.4,0,0.7,0.1,0.9,0.3c0.3,0.2,0.5,0.5,0.6,0.8c0.2-0.3,0.4-0.6,0.7-0.8c0.3-0.2,0.6-0.3,1-0.3c0.6,0,1,0.2,1.3,0.7      c0.3,0.5,0.5,1.2,0.5,2.1v3.9h-1.7V291c0-0.6-0.1-0.9-0.2-1.1c-0.1-0.2-0.3-0.3-0.6-0.3c-0.2,0-0.4,0.1-0.5,0.2      c-0.2,0.1-0.3,0.3-0.4,0.4c0,0.1,0,0.2,0,0.2c0,0.1,0,0.1,0,0.2v4.3h-1.7V291c0-0.5-0.1-0.9-0.2-1.1c-0.1-0.2-0.3-0.3-0.6-0.3      c-0.2,0-0.4,0-0.5,0.1c-0.2,0.1-0.3,0.2-0.4,0.4v4.8h-1.7v-6.6H303.7z" id="XMLID_7262_"/><path class="st1" d="M314.7,293.2c0-0.2-0.1-0.4-0.2-0.5c-0.2-0.1-0.4-0.3-0.9-0.5c-0.7-0.2-1.2-0.5-1.5-0.8      c-0.3-0.3-0.5-0.7-0.5-1.2c0-0.5,0.2-1,0.7-1.4c0.4-0.4,1-0.6,1.7-0.6c0.7,0,1.3,0.2,1.8,0.6c0.4,0.4,0.7,0.9,0.6,1.5l0,0h-1.7      c0-0.3-0.1-0.5-0.2-0.7c-0.1-0.2-0.3-0.3-0.6-0.3c-0.2,0-0.4,0.1-0.5,0.2c-0.1,0.1-0.2,0.3-0.2,0.5c0,0.2,0.1,0.4,0.2,0.5      c0.1,0.1,0.4,0.3,0.9,0.5c0.7,0.2,1.2,0.5,1.6,0.8s0.5,0.7,0.5,1.2c0,0.6-0.2,1-0.7,1.4c-0.5,0.4-1.1,0.5-1.8,0.5      c-0.8,0-1.4-0.2-1.8-0.7c-0.5-0.4-0.7-0.9-0.6-1.5l0,0h1.6c0,0.4,0.1,0.6,0.3,0.8c0.2,0.2,0.4,0.2,0.7,0.2      c0.2,0,0.4-0.1,0.6-0.2C314.7,293.6,314.7,293.4,314.7,293.2z" id="XMLID_7260_"/></g><g id="XMLID_7252_"><path class="st1" d="M302.6,324.6h-2.9v3.7H298v-8.8h5.2v1.3h-3.4v2.5h2.9V324.6z" id="XMLID_7257_"/><path class="st1" d="M307.4,324.7h-3.1v-1.3h3.1V324.7z" id="XMLID_7255_"/><path class="st1" d="M313.5,324.4h-2.8v2.6h3.3v1.3h-5v-8.8h5v1.3h-3.3v2.3h2.8V324.4z" id="XMLID_7253_"/></g><g id="XMLID_7249_"><rect class="st17" height="22.3" id="XMLID_7251_" width="32.8" x="345.2" y="412.3"/><rect class="st18" height="22.3" id="XMLID_7250_" width="32.8" x="344.4" y="411.4"/></g><g id="XMLID_7246_"><rect class="st17" height="22.3" id="XMLID_7248_" width="32.8" x="345.2" y="446.6"/><rect class="st18" height="22.3" id="XMLID_7247_" width="32.8" x="344.4" y="445.7"/></g><rect class="st1" height="2" id="XMLID_7245_" width="12.3" x="355" y="422"/><g id="XMLID_7242_"><rect class="st1" height="2" id="XMLID_7244_" width="12.3" x="355" y="453.3"/><rect class="st1" height="2" id="XMLID_7243_" width="12.3" x="355" y="459.3"/></g><g id="XMLID_7230_"><g id="XMLID_7239_"><rect class="st17" height="22.3" id="XMLID_7241_" width="32.8" x="345.2" y="343.7"/><rect class="st18" height="22.3" id="XMLID_7240_" width="32.8" x="344.4" y="342.9"/></g><g id="XMLID_7231_"><rect class="st1" height="2" id="XMLID_7238_" transform="matrix(-0.7071 0.7071 -0.7071 -0.7071 867.2034 349.6245)" width="12.3" x="355" y="353.4"/><path class="st1" d="M357.8,348.2c-1.2,0-2.2,1.3-2.2,2.9c0,1.6,1,2.9,2.2,2.9s2.2-1.3,2.2-2.9       C360,349.5,359,348.2,357.8,348.2z M357.8,352.3c-0.5,0-1-0.6-1-1.3s0.4-1.3,1-1.3c0.5,0,1,0.6,1,1.3S358.4,352.3,357.8,352.3z       " id="XMLID_7235_"/><path class="st1" d="M364.6,354.9c-1.2,0-2.2,1.3-2.2,2.9c0,1.6,1,2.9,2.2,2.9c1.2,0,2.2-1.3,2.2-2.9       C366.7,356.2,365.8,354.9,364.6,354.9z M364.6,359.1c-0.5,0-1-0.6-1-1.3s0.4-1.3,1-1.3c0.5,0,1,0.6,1,1.3       S365.1,359.1,364.6,359.1z" id="XMLID_7232_"/></g></g><g id="XMLID_7219_"><g id="XMLID_7227_"><rect class="st17" height="22.3" id="XMLID_7229_" width="32.8" x="345.2" y="378"/><rect class="st18" height="22.3" id="XMLID_7228_" width="32.8" x="344.4" y="377.1"/></g><g id="XMLID_7220_"><path class="st1" d="M358.1,388.3h-1.1v-4.8l-0.9,0v-0.9l2-0.2V388.3z" id="XMLID_7225_"/><path class="st1" d="M364.4,391.5L364.4,391.5l0.6-1.6h1.5l-1.3,2.5l1.3,2.5h-1.5l-0.6-1.6h0l-0.6,1.6h-1.5       l1.3-2.5l-1.3-2.5h1.5L364.4,391.5z" id="XMLID_7222_"/><rect class="st1" height="2" id="XMLID_7221_" transform="matrix(-0.7071 0.7071 -0.7071 -0.7071 891.0405 408.5966)" width="12.3" x="354.7" y="387.8"/></g></g><g id="XMLID_7216_"><rect class="st13" height="21.9" id="XMLID_7218_" width="32.2" x="345.8" y="246.1"/><rect class="st14" height="21.9" id="XMLID_7217_" width="32.2" x="345" y="245.2"/></g><g id="XMLID_7213_"><rect class="st13" height="21.9" id="XMLID_7215_" width="32.2" x="345.8" y="279.7"/><rect class="st14" height="21.9" id="XMLID_7214_" width="32.2" x="345" y="278.9"/></g><g id="XMLID_7210_"><rect class="st13" height="21.9" id="XMLID_7212_" width="32.2" x="345.8" y="313.4"/><rect class="st14" height="21.9" id="XMLID_7211_" width="32.2" x="345" y="312.6"/></g><g id="XMLID_7205_"><path class="st1" d="M359.2,290.2L359.2,290.2l1-2.7h2.5l-2.2,4.2l2.2,4.3h-2.5l-1-2.8h0l-1,2.8h-2.5l2.2-4.3      l-2.2-4.2h2.5L359.2,290.2z" id="XMLID_7208_"/><path class="st1" d="M365.6,287c0.2,0,0.3-0.1,0.4-0.2c0.1-0.1,0.1-0.3,0.1-0.6c0-0.2-0.1-0.4-0.2-0.5      c-0.1-0.1-0.2-0.2-0.4-0.2c-0.1,0-0.3,0.1-0.4,0.2c-0.1,0.1-0.1,0.3-0.1,0.5h-1.1l0,0c0-0.4,0.1-0.8,0.4-1.1      c0.3-0.3,0.7-0.4,1.1-0.4c0.5,0,0.9,0.1,1.2,0.4c0.3,0.3,0.5,0.7,0.5,1.2c0,0.3-0.1,0.5-0.2,0.7c-0.1,0.2-0.3,0.4-0.5,0.5      c0.2,0.1,0.4,0.3,0.6,0.5c0.1,0.2,0.2,0.5,0.2,0.8c0,0.5-0.2,0.9-0.5,1.2c-0.3,0.3-0.7,0.4-1.3,0.4c-0.5,0-0.8-0.1-1.2-0.4      c-0.3-0.3-0.5-0.7-0.5-1.2l0,0h1.1c0,0.2,0.1,0.4,0.2,0.6c0.1,0.1,0.2,0.2,0.4,0.2c0.2,0,0.4-0.1,0.5-0.2      c0.1-0.1,0.2-0.3,0.2-0.6c0-0.3-0.1-0.5-0.2-0.7c-0.1-0.1-0.3-0.2-0.5-0.2h-0.6V287H365.6z" id="XMLID_7206_"/></g><g id="XMLID_7196_"><path class="st1" d="M366.7,319.5L366.7,319.5l0.6-1.6h1.5l-1.3,2.4l1.3,2.5h-1.5l-0.6-1.6h0l-0.6,1.6h-1.5      l1.3-2.5l-1.3-2.4h1.5L366.7,319.5z" id="XMLID_7203_"/><g id="XMLID_7197_"><path class="st1" d="M357,329.8h-1.6v-6.6l-1.2,0V322l2.8-0.3V329.8z" id="XMLID_7201_"/><path class="st1" d="M363.4,326.9c0,0.9-0.2,1.6-0.7,2.2c-0.4,0.5-1,0.8-1.7,0.8s-1.3-0.3-1.7-0.8       s-0.7-1.2-0.7-2.2v-2.4c0-0.9,0.2-1.6,0.7-2.2c0.4-0.5,1-0.8,1.7-0.8c0.7,0,1.3,0.3,1.8,0.8c0.4,0.5,0.7,1.2,0.7,2.1V326.9z        M361.9,324.5c0-0.5-0.1-0.9-0.2-1.2c-0.2-0.3-0.4-0.4-0.6-0.4c-0.3,0-0.5,0.1-0.6,0.4c-0.1,0.3-0.2,0.7-0.2,1.2v2.5       c0,0.5,0.1,1,0.2,1.2c0.1,0.3,0.4,0.4,0.6,0.4c0.3,0,0.5-0.1,0.6-0.4c0.1-0.3,0.2-0.7,0.2-1.2V324.5z" id="XMLID_7198_"/></g></g><g id="XMLID_7190_"><path class="st1" d="M366,256.3h-3.4v-0.9l1.7-1.9c0.2-0.3,0.4-0.5,0.4-0.7s0.1-0.4,0.1-0.6      c0-0.2,0-0.4-0.1-0.6c-0.1-0.1-0.2-0.2-0.4-0.2c-0.2,0-0.3,0.1-0.4,0.3c-0.1,0.2-0.2,0.4-0.2,0.7h-1.1l0,0      c0-0.5,0.1-0.9,0.4-1.2c0.3-0.3,0.7-0.5,1.2-0.5c0.5,0,0.9,0.1,1.2,0.4c0.3,0.3,0.4,0.7,0.4,1.2c0,0.4-0.1,0.7-0.3,1      c-0.2,0.3-0.4,0.7-0.8,1.1l-0.8,1.1h2V256.3z" id="XMLID_7194_"/><g id="XMLID_7191_"><path class="st1" d="M359.5,257.7L359.5,257.7L359.5,257.7l0.9-3.6h1.7l-2.1,6.9c-0.2,0.4-0.4,0.8-0.6,1.1       c-0.3,0.3-0.7,0.4-1.2,0.4c-0.1,0-0.3,0-0.4,0c-0.1,0-0.2-0.1-0.4-0.1l0.2-1.1c0,0,0.1,0,0.1,0c0,0,0.1,0,0.1,0       c0.2,0,0.4-0.1,0.5-0.2c0.1-0.1,0.2-0.3,0.3-0.5l0.1-0.4l-1.8-6h1.7L359.5,257.7z" id="XMLID_7192_"/></g></g><g id="XMLID_7186_"><circle class="st13" cx="354.3" cy="214.8" id="XMLID_7188_" r="22.9"/><circle class="st14" cx="353.1" cy="214" id="XMLID_7187_" r="22.9"/></g><g id="XMLID_7183_"><ellipse class="st13" cx="301.8" cy="218.2" id="XMLID_7185_" rx="9.9" ry="19.8" transform="matrix(0.9322 -0.3619 0.3619 0.9322 -58.4949 124.013)"/><ellipse class="st14" cx="301" cy="218.1" id="XMLID_7184_" rx="9.9" ry="19.8" transform="matrix(0.9322 -0.3619 0.3619 0.9322 -58.5174 123.6912)"/></g><g id="XMLID_7178_"><path class="st1" d="M299.9,220.9L299.9,220.9c0,0.9-0.2,1.6-0.7,2.1c-0.5,0.5-1.2,0.7-2,0.7      c-0.9,0-1.6-0.3-2.2-0.8c-0.5-0.6-0.8-1.3-0.8-2.3v-2.1c0-1,0.3-1.8,0.8-2.3c0.5-0.6,1.2-0.8,2.1-0.8c0.9,0,1.6,0.2,2.1,0.7      c0.5,0.5,0.7,1.1,0.7,2l0,0h-1.6c0-0.5-0.1-0.9-0.3-1.2s-0.5-0.4-1-0.4c-0.4,0-0.7,0.2-0.9,0.5c-0.2,0.3-0.3,0.8-0.3,1.4v2.1      c0,0.6,0.1,1.1,0.3,1.4c0.2,0.3,0.6,0.5,1,0.5c0.4,0,0.7-0.1,0.9-0.3c0.2-0.2,0.3-0.6,0.3-1.2H299.9z" id="XMLID_7181_"/><path class="st1" d="M305.2,219.9h-2.6v2.4h3.1v1.3H301v-8.3h4.7v1.3h-3.1v2.1h2.6V219.9z" id="XMLID_7179_"/></g><g id="XMLID_7172_"><path class="st1" d="M347.6,219.1H343l-1,3.9h-3.7l5.2-18h3.7l5.2,18h-3.7L347.6,219.1z M343.7,216.3h3.1      l-1.5-5.7h-0.1L343.7,216.3z" id="XMLID_7175_"/><path class="st1" d="M365.4,217.2L365.4,217.2c0.1,2-0.4,3.5-1.5,4.5c-1,1-2.5,1.5-4.4,1.5      c-2,0-3.5-0.6-4.7-1.8c-1.2-1.2-1.7-2.9-1.7-5.1v-4.6c0-2.2,0.6-3.9,1.7-5.1c1.1-1.2,2.6-1.8,4.5-1.8c2,0,3.5,0.5,4.6,1.5      c1.1,1,1.6,2.5,1.6,4.4l0,0.1H362c0-1.2-0.2-2-0.6-2.5c-0.4-0.5-1.1-0.8-2.1-0.8c-0.9,0-1.5,0.4-2,1.1c-0.5,0.7-0.7,1.8-0.7,3.1      v4.7c0,1.4,0.2,2.4,0.7,3.1c0.5,0.7,1.2,1.1,2.2,1.1c0.9,0,1.5-0.3,1.9-0.8c0.4-0.5,0.6-1.4,0.6-2.5H365.4z" id="XMLID_7173_"/></g></g><g id="XMLID_7158_"><path d="M270.1,97l1-9.7h8.8v2.1h-6.8l-0.6,5c0.4-0.3,0.8-0.5,1.3-0.7c0.5-0.2,1-0.3,1.6-0.3     c1.6,0,2.9,0.5,3.8,1.5c0.9,1,1.4,2.4,1.4,4.2c0,1.8-0.5,3.2-1.4,4.2c-0.9,1.1-2.3,1.6-4.1,1.6c-1.5,0-2.7-0.4-3.7-1.2     c-1-0.8-1.5-2-1.4-3.6l0-0.1h2.1c0,1,0.3,1.7,0.8,2.2c0.5,0.5,1.3,0.8,2.1,0.8c1,0,1.8-0.4,2.3-1.1c0.6-0.7,0.8-1.7,0.8-2.9     c0-1.1-0.3-2-0.8-2.7c-0.6-0.7-1.3-1-2.3-1c-0.9,0-1.6,0.1-2,0.4c-0.4,0.3-0.7,0.7-0.9,1.3L270.1,97z" id="XMLID_7169_"/><path d="M294.6,89.2c-2.2,2.6-3.7,5-4.5,7c-0.8,2-1.2,4.3-1.2,6.8v1.9h-2.4v-1.9c0-2.6,0.5-5,1.5-7.2     c1-2.1,2.4-4.3,4.2-6.6H283v-1.9h11.6V89.2z" id="XMLID_7167_"/><path d="M297.5,97l1-9.7h8.8v2.1h-6.8l-0.6,5c0.4-0.3,0.8-0.5,1.3-0.7c0.5-0.2,1-0.3,1.6-0.3     c1.6,0,2.9,0.5,3.8,1.5c0.9,1,1.4,2.4,1.4,4.2c0,1.8-0.5,3.2-1.4,4.2c-0.9,1.1-2.3,1.6-4.1,1.6c-1.5,0-2.7-0.4-3.7-1.2     c-1-0.8-1.5-2-1.4-3.6l0-0.1h2.1c0,1,0.3,1.7,0.8,2.2c0.5,0.5,1.3,0.8,2.1,0.8c1,0,1.8-0.4,2.3-1.1c0.6-0.7,0.8-1.7,0.8-2.9     c0-1.1-0.3-2-0.8-2.7c-0.6-0.7-1.3-1-2.3-1c-0.9,0-1.6,0.1-2,0.4c-0.4,0.3-0.7,0.7-0.9,1.3L297.5,97z" id="XMLID_7165_"/><path d="M318.4,98.3h-7.1v-1.9h7.1V98.3z" id="XMLID_7163_"/><path d="M327.3,94.9c1.1,0,1.8-0.3,2.2-0.8c0.4-0.5,0.7-1.3,0.7-2.2c0-0.9-0.2-1.6-0.7-2.1     c-0.5-0.5-1.2-0.8-2.1-0.8c-0.9,0-1.7,0.3-2.3,0.8c-0.6,0.6-0.9,1.3-0.9,2.1H322l0-0.1c0-1.3,0.5-2.4,1.5-3.4     c1-0.9,2.4-1.4,4-1.4c1.6,0,2.9,0.4,3.8,1.2c0.9,0.8,1.4,2,1.4,3.6c0,0.8-0.2,1.6-0.6,2.2c-0.4,0.7-1,1.2-1.8,1.6     c0.9,0.4,1.6,0.9,2,1.6c0.5,0.7,0.7,1.6,0.7,2.6c0,1.6-0.5,2.9-1.5,3.8c-1,0.9-2.3,1.4-4,1.4c-1.5,0-2.8-0.4-3.9-1.3     c-1.1-0.9-1.7-2-1.6-3.5l0-0.1h2.3c0,0.9,0.3,1.6,0.9,2.1c0.6,0.6,1.4,0.9,2.4,0.9c1,0,1.7-0.3,2.3-0.9c0.6-0.6,0.8-1.4,0.8-2.3     c0-1.1-0.3-1.9-0.8-2.5c-0.5-0.5-1.3-0.8-2.4-0.8h-2v-1.8H327.3z" id="XMLID_7161_"/><path d="M336.4,97l1-9.7h8.8v2.1h-6.8l-0.6,5c0.4-0.3,0.8-0.5,1.3-0.7c0.5-0.2,1-0.3,1.6-0.3     c1.6,0,2.9,0.5,3.8,1.5c0.9,1,1.4,2.4,1.4,4.2c0,1.8-0.5,3.2-1.4,4.2c-0.9,1.1-2.3,1.6-4.1,1.6c-1.5,0-2.7-0.4-3.7-1.2     c-1-0.8-1.5-2-1.4-3.6l0-0.1h2.1c0,1,0.3,1.7,0.8,2.2c0.5,0.5,1.3,0.8,2.1,0.8c1,0,1.8-0.4,2.3-1.1c0.6-0.7,0.8-1.7,0.8-2.9     c0-1.1-0.3-2-0.8-2.7c-0.6-0.7-1.3-1-2.3-1c-0.9,0-1.6,0.1-2,0.4c-0.4,0.3-0.7,0.7-0.9,1.3L336.4,97z" id="XMLID_7159_"/></g><g id="XMLID_7155_"><polygon id="XMLID_7157_" points="144.9,90.3 147.5,85.8 150.1,90.3    "/><polygon id="XMLID_7156_" points="150.1,96.5 147.5,101 144.9,96.5    "/></g><g id="XMLID_7146_"><path d="M267.4,81.3h-1V84H266v-2.8h-1v-0.3h2.4V81.3z" id="XMLID_7153_"/><path d="M268.9,84c0-0.1,0-0.1,0-0.2c0-0.1,0-0.1,0-0.2c-0.1,0.1-0.2,0.2-0.3,0.3c-0.1,0.1-0.3,0.1-0.4,0.1     c-0.2,0-0.4-0.1-0.5-0.2c-0.1-0.1-0.2-0.3-0.2-0.5c0-0.2,0.1-0.4,0.3-0.5c0.2-0.1,0.4-0.2,0.7-0.2h0.5v-0.2c0-0.1,0-0.2-0.1-0.3     s-0.2-0.1-0.3-0.1c-0.1,0-0.2,0-0.3,0.1c-0.1,0.1-0.1,0.1-0.1,0.2l-0.4,0l0,0c0-0.2,0.1-0.3,0.2-0.5s0.4-0.2,0.6-0.2     c0.3,0,0.5,0.1,0.6,0.2c0.2,0.1,0.2,0.3,0.2,0.6v1.1c0,0.1,0,0.2,0,0.2c0,0.1,0,0.2,0,0.2H268.9z M268.2,83.7     c0.2,0,0.3,0,0.4-0.1c0.1-0.1,0.2-0.2,0.2-0.3V83h-0.5c-0.2,0-0.3,0-0.4,0.1c-0.1,0.1-0.2,0.2-0.2,0.3c0,0.1,0,0.2,0.1,0.2     C267.9,83.7,268,83.7,268.2,83.7z" id="XMLID_7150_"/><path d="M271.8,83c0,0.3-0.1,0.6-0.2,0.8c-0.2,0.2-0.4,0.3-0.7,0.3c-0.2,0-0.3,0-0.4-0.1     c-0.1-0.1-0.2-0.1-0.3-0.3l-0.1,0.3h-0.3v-3.3h0.4V82c0.1-0.1,0.2-0.2,0.3-0.2c0.1-0.1,0.2-0.1,0.4-0.1c0.3,0,0.5,0.1,0.7,0.3     C271.7,82.2,271.8,82.5,271.8,83L271.8,83z M271.4,82.9c0-0.3,0-0.5-0.1-0.6c-0.1-0.2-0.2-0.2-0.4-0.2c-0.1,0-0.2,0-0.3,0.1     c-0.1,0.1-0.2,0.1-0.2,0.3v1c0.1,0.1,0.1,0.2,0.2,0.3c0.1,0.1,0.2,0.1,0.3,0.1c0.2,0,0.3-0.1,0.4-0.2     C271.3,83.4,271.4,83.2,271.4,82.9L271.4,82.9z" id="XMLID_7147_"/></g><g id="XMLID_7136_"><path d="M311.2,83.5v-3.1h1c0.4,0,0.7,0.1,1,0.4c0.2,0.2,0.4,0.6,0.4,1v0.4c0,0.4-0.1,0.7-0.4,1     c-0.2,0.2-0.6,0.4-1,0.4H311.2z M311.7,80.7v2.4h0.6c0.3,0,0.5-0.1,0.7-0.3c0.2-0.2,0.2-0.4,0.2-0.7v-0.4c0-0.3-0.1-0.5-0.2-0.7     c-0.2-0.2-0.4-0.3-0.7-0.3H311.7z" id="XMLID_7143_"/><path d="M315.5,83.5c0-0.1,0-0.1,0-0.2c0-0.1,0-0.1,0-0.2c-0.1,0.1-0.2,0.2-0.3,0.3c-0.1,0.1-0.3,0.1-0.4,0.1     c-0.2,0-0.4-0.1-0.5-0.2c-0.1-0.1-0.2-0.3-0.2-0.5c0-0.2,0.1-0.4,0.3-0.5c0.2-0.1,0.4-0.2,0.7-0.2h0.5v-0.2c0-0.1,0-0.2-0.1-0.3     c-0.1-0.1-0.2-0.1-0.3-0.1c-0.1,0-0.2,0-0.3,0.1c-0.1,0.1-0.1,0.1-0.1,0.2l-0.4,0l0,0c0-0.2,0.1-0.3,0.2-0.5     c0.2-0.1,0.4-0.2,0.6-0.2c0.3,0,0.5,0.1,0.6,0.2c0.2,0.1,0.2,0.3,0.2,0.6V83c0,0.1,0,0.2,0,0.2c0,0.1,0,0.2,0,0.2H315.5z      M314.8,83.2c0.2,0,0.3,0,0.4-0.1c0.1-0.1,0.2-0.2,0.2-0.3v-0.4H315c-0.2,0-0.3,0-0.4,0.1c-0.1,0.1-0.2,0.2-0.2,0.3     c0,0.1,0,0.2,0.1,0.2C314.6,83.1,314.7,83.2,314.8,83.2z" id="XMLID_7140_"/><path d="M316.4,82.4c0-0.4,0.1-0.7,0.2-0.9c0.2-0.2,0.4-0.3,0.7-0.3c0.1,0,0.3,0,0.4,0.1     c0.1,0.1,0.2,0.1,0.3,0.3l0.1-0.3h0.3v2.3c0,0.3-0.1,0.5-0.3,0.7c-0.2,0.2-0.4,0.2-0.7,0.2c-0.1,0-0.2,0-0.4,0     c-0.1,0-0.2-0.1-0.3-0.1l0.1-0.3c0.1,0,0.2,0.1,0.3,0.1c0.1,0,0.2,0,0.3,0c0.2,0,0.4,0,0.4-0.1c0.1-0.1,0.1-0.2,0.1-0.4v-0.3     c-0.1,0.1-0.2,0.2-0.3,0.2c-0.1,0-0.2,0.1-0.4,0.1c-0.3,0-0.5-0.1-0.7-0.3C316.5,83,316.4,82.7,316.4,82.4L316.4,82.4z      M316.8,82.4c0,0.2,0,0.4,0.1,0.6c0.1,0.1,0.2,0.2,0.4,0.2c0.1,0,0.2,0,0.3-0.1c0.1-0.1,0.2-0.1,0.2-0.2v-1.1     c-0.1-0.1-0.1-0.2-0.2-0.2c-0.1-0.1-0.2-0.1-0.3-0.1c-0.2,0-0.3,0.1-0.4,0.2C316.9,81.9,316.8,82.1,316.8,82.4L316.8,82.4z" id="XMLID_7137_"/></g><g id="XMLID_7112_"><path class="st19" d="M141.7,58.6L141.7,58.6c0,1.4-0.4,2.5-1.4,3.3c-0.9,0.9-2.2,1.3-3.7,1.3     c-1.6,0-2.9-0.6-3.9-1.7c-1-1.1-1.5-2.5-1.5-4.3v-2.5c0-1.7,0.5-3.1,1.5-4.3c1-1.1,2.3-1.7,3.9-1.7c1.6,0,2.8,0.4,3.8,1.3     c0.9,0.8,1.4,2,1.4,3.3l0,0.1h-1.8c0-1-0.3-1.8-0.9-2.3c-0.6-0.6-1.4-0.9-2.4-0.9c-1.1,0-1.9,0.4-2.5,1.3     c-0.6,0.8-0.9,1.9-0.9,3.2v2.5c0,1.3,0.3,2.3,0.9,3.2c0.6,0.8,1.5,1.3,2.5,1.3c1,0,1.9-0.3,2.4-0.8c0.6-0.6,0.9-1.3,0.9-2.3     H141.7z" id="XMLID_7134_"/><path class="st19" d="M150.3,63c-0.1-0.3-0.1-0.6-0.1-0.8c0-0.2-0.1-0.5-0.1-0.7c-0.4,0.5-0.8,0.9-1.4,1.3     c-0.6,0.3-1.2,0.5-1.8,0.5c-1.1,0-1.9-0.3-2.5-0.8c-0.6-0.6-0.8-1.3-0.8-2.3c0-1,0.4-1.8,1.2-2.3c0.8-0.6,1.9-0.8,3.3-0.8h2.1v-1     c0-0.6-0.2-1.1-0.6-1.4c-0.4-0.4-0.9-0.5-1.6-0.5c-0.6,0-1.1,0.2-1.5,0.5c-0.4,0.3-0.6,0.7-0.6,1.1l-1.8,0l0-0.1     c0-0.8,0.3-1.4,1.1-2.1c0.8-0.6,1.7-0.9,2.9-0.9c1.2,0,2.1,0.3,2.8,0.9c0.7,0.6,1.1,1.5,1.1,2.6v5c0,0.4,0,0.7,0.1,1.1     c0,0.3,0.1,0.7,0.2,1H150.3z M147.2,61.7c0.7,0,1.3-0.2,1.8-0.5c0.5-0.4,0.9-0.8,1.1-1.2v-1.7H148c-0.8,0-1.4,0.2-1.8,0.6     c-0.5,0.4-0.7,0.8-0.7,1.4c0,0.5,0.1,0.8,0.4,1.1C146.2,61.5,146.6,61.7,147.2,61.7z" id="XMLID_7131_"/><path class="st19" d="M156.7,63h-1.9V48.1h1.9V63z" id="XMLID_7129_"/><path class="st19" d="M163.8,61.8c0.6,0,1.1-0.2,1.5-0.6c0.4-0.4,0.7-0.9,0.7-1.4h1.7l0,0.1     c0,0.9-0.4,1.7-1.1,2.4c-0.8,0.7-1.7,1-2.8,1c-1.5,0-2.6-0.5-3.4-1.5c-0.8-1-1.2-2.2-1.2-3.7v-0.4c0-1.5,0.4-2.7,1.2-3.7     c0.8-1,1.9-1.5,3.4-1.5c1.2,0,2.1,0.4,2.8,1.1c0.7,0.7,1.1,1.6,1.1,2.6l0,0.1h-1.7c0-0.6-0.2-1.2-0.6-1.6     c-0.4-0.4-0.9-0.7-1.6-0.7c-0.9,0-1.6,0.4-2,1.1c-0.4,0.7-0.6,1.6-0.6,2.6v0.4c0,1,0.2,1.9,0.6,2.6     C162.2,61.4,162.8,61.8,163.8,61.8z" id="XMLID_7127_"/><path class="st19" d="M176.5,61.5c-0.3,0.6-0.7,1-1.3,1.3c-0.5,0.3-1.1,0.5-1.8,0.5c-1.1,0-2-0.4-2.6-1.1     c-0.6-0.7-0.9-1.8-0.9-3.4v-6.1h1.9v6.1c0,1.1,0.2,1.9,0.5,2.3c0.3,0.4,0.8,0.6,1.5,0.6c0.7,0,1.2-0.1,1.7-0.4     c0.4-0.3,0.8-0.7,1-1.2v-7.5h1.9V63h-1.7L176.5,61.5z" id="XMLID_7125_"/><path class="st19" d="M183.1,63h-1.9V48.1h1.9V63z" id="XMLID_7123_"/><path class="st19" d="M192.4,63c-0.1-0.3-0.1-0.6-0.1-0.8c0-0.2-0.1-0.5-0.1-0.7c-0.4,0.5-0.8,0.9-1.4,1.3     c-0.6,0.3-1.2,0.5-1.8,0.5c-1.1,0-1.9-0.3-2.5-0.8c-0.6-0.6-0.8-1.3-0.8-2.3c0-1,0.4-1.8,1.2-2.3c0.8-0.6,1.9-0.8,3.3-0.8h2.1v-1     c0-0.6-0.2-1.1-0.6-1.4c-0.4-0.4-0.9-0.5-1.6-0.5c-0.6,0-1.1,0.2-1.5,0.5c-0.4,0.3-0.6,0.7-0.6,1.1l-1.8,0l0-0.1     c0-0.8,0.3-1.4,1.1-2.1c0.8-0.6,1.7-0.9,2.9-0.9c1.2,0,2.1,0.3,2.8,0.9c0.7,0.6,1.1,1.5,1.1,2.6v5c0,0.4,0,0.7,0.1,1.1     c0,0.3,0.1,0.7,0.2,1H192.4z M189.3,61.7c0.7,0,1.3-0.2,1.8-0.5c0.5-0.4,0.9-0.8,1.1-1.2v-1.7h-2.1c-0.8,0-1.4,0.2-1.8,0.6     c-0.5,0.4-0.7,0.8-0.7,1.4c0,0.5,0.1,0.8,0.4,1.1C188.3,61.5,188.7,61.7,189.3,61.7z" id="XMLID_7120_"/><path class="st19" d="M199.2,50.2v2.5h2v1.4h-2v6.3c0,0.5,0.1,0.8,0.3,1c0.2,0.2,0.5,0.3,0.8,0.3     c0.1,0,0.2,0,0.4,0c0.1,0,0.2-0.1,0.3-0.1l0.3,1.3c-0.1,0.1-0.4,0.2-0.6,0.3c-0.3,0.1-0.5,0.1-0.8,0.1c-0.8,0-1.4-0.2-1.8-0.7     c-0.5-0.5-0.7-1.2-0.7-2.2v-6.3h-1.6v-1.4h1.6v-2.5H199.2z" id="XMLID_7118_"/><path class="st19" d="M207.6,63.2c-1.5,0-2.8-0.5-3.6-1.4c-0.9-1-1.3-2.2-1.3-3.8v-0.4c0-1.5,0.4-2.7,1.3-3.7     c0.9-1,1.9-1.5,3.1-1.5c1.4,0,2.4,0.4,3.1,1.3c0.7,0.9,1,2,1,3.4v1h-6.6l0,0c0,1,0.2,1.9,0.7,2.5c0.5,0.7,1.2,1,2.3,1     c0.6,0,1.1-0.1,1.5-0.2c0.4-0.1,0.8-0.3,1.3-0.6l0.5,1.3c-0.3,0.2-0.8,0.5-1.3,0.7C209.1,63.2,208.4,63.2,207.6,63.2z M207.1,54     c-0.7,0-1.2,0.3-1.6,0.8c-0.4,0.5-0.7,1.2-0.8,2l0,0h4.7v-0.2c0-0.8-0.2-1.4-0.6-1.9C208.4,54.2,207.8,54,207.1,54z" id="XMLID_7115_"/><path class="st19" d="M218.2,54.3l-1-0.1c-0.5,0-0.9,0.1-1.3,0.4c-0.3,0.2-0.6,0.6-0.8,1V63h-1.9V52.7h1.7     l0.1,1.6c0.3-0.6,0.7-1,1.1-1.3c0.4-0.3,1-0.5,1.5-0.5c0.1,0,0.3,0,0.4,0c0.1,0,0.2,0,0.3,0.1L218.2,54.3z" id="XMLID_7113_"/></g></g></g></svg>